<svg width="48" height="48" viewBox="0 0 48 48" fill="none" xmlns="http://www.w3.org/2000/svg">
<path d="M46.5037 15.9062C45.5442 13.4624 43.7847 9.93626 40.8512 7.01595C37.9281 4.10571 34.4403 2.39608 32.0291 1.47423C29.382 0.46224 26.3739 1.10011 24.3659 3.0992L17.3098 10.1241C15.2182 12.2064 14.6153 15.4105 15.8096 18.0971C16.1799 18.9303 16.5827 19.7453 17.0131 20.5327L1.5263 36.0234C1.1893 36.3605 1 36.8176 1 37.2944V45.2027C1 46.1953 1.80446 47 2.79687 47H10.7031C11.6955 47 12.5 46.1953 12.5 45.2027V41.9675L15.7343 41.9674C16.7267 41.9674 17.5312 41.1627 17.5312 40.17V36.9349H20.7655C21.7579 36.9349 22.5624 36.1303 22.5624 35.1376C22.5624 34.1449 21.7579 33.3403 20.7655 33.3403H15.7343C14.7419 33.3403 13.9374 34.1449 13.9374 35.1376V38.3727L10.7031 38.3728C9.71067 38.3728 8.90622 39.1775 8.90622 40.1701V43.4053H4.59373V38.0388L20.5279 22.1006C21.1133 21.5151 21.223 20.6053 20.7937 19.8974C20.171 18.8707 19.5989 17.7736 19.0936 16.6365C18.5007 15.3028 18.8027 13.7096 19.8452 12.6717L26.9012 5.64692C27.9086 4.6441 29.4178 4.32426 30.7463 4.83201C32.8327 5.62967 35.8395 7.09791 38.3162 9.56367C40.808 12.0444 42.325 15.0965 43.1587 17.2201C43.679 18.5454 43.3629 20.0511 42.3533 21.0562L35.212 28.1659C34.1721 29.2011 32.6199 29.5038 31.2574 28.937C30.1338 28.4695 29.0455 27.9141 28.0231 27.2864C27.1774 26.7671 26.0709 27.0321 25.5518 27.8781C25.0327 28.7241 25.2974 29.8309 26.1432 30.3501C27.3248 31.0755 28.5812 31.7167 29.8773 32.2559C32.5853 33.3828 35.6744 32.7772 37.7471 30.7137L44.8884 23.6041C46.9139 21.5876 47.5479 18.566 46.5037 15.9062Z" fill="url(#paint0_linear)"/>
<defs>
<linearGradient id="paint0_linear" x1="47" y1="24" x2="-1.875" y2="24" gradientUnits="userSpaceOnUse">
<stop stop-color="#F3E485"/>
<stop offset="1" stop-color="#B18145"/>
</linearGradient>
</defs>
</svg>
