<svg width="48" height="48" viewBox="0 0 48 48" fill="none" xmlns="http://www.w3.org/2000/svg">
<path d="M10.5988 8.89243C10.5988 9.88457 9.79472 10.6886 8.80258 10.6886C7.81044 10.6886 7.00606 9.88457 7.00606 8.89243C7.00606 7.90028 7.81044 7.0959 8.80258 7.0959C9.79472 7.0959 10.5988 7.90028 10.5988 8.89243ZM22.1858 30.0899C22.1858 31.0821 21.3814 31.8865 20.3893 31.8865H17.3356V37.9046C17.3356 38.8967 16.5312 39.7008 15.5391 39.7008C14.547 39.7008 13.7426 38.8967 13.7426 37.9046V31.8865H7.18575C5.20462 31.8865 3.5927 33.4984 3.5927 35.4795V38.8027C3.5927 40.7838 5.20462 42.3957 7.18575 42.3957H18.5931C19.5852 42.3957 20.3893 43.1998 20.3893 44.1919C20.3893 45.184 19.5852 45.9884 18.5931 45.9884H7.18575C3.2235 45.9884 0 42.7649 0 38.8027V35.4795C0 33.3348 0.945465 31.4078 2.44052 30.0899C0.945465 28.7725 0 26.8454 0 24.7007V21.2877C0 19.143 0.945465 17.216 2.44052 15.8985C0.945465 14.5807 0 12.6536 0 10.5089V7.18575C0 3.2235 3.2235 0 7.18575 0H35.21C39.1722 0 42.3957 3.2235 42.3957 7.18575V10.5089C42.3957 12.6525 41.451 14.5786 39.9577 15.896C40.5476 16.4144 41.0568 17.0324 41.4562 17.7336C41.9476 18.5956 41.6471 19.6926 40.7849 20.184C40.5044 20.344 40.1988 20.4198 39.8973 20.4198C39.2726 20.4198 38.6662 20.0938 38.3349 19.5126C37.6958 18.3913 36.4983 17.6947 35.21 17.6947H17.3356V23.8026C17.3356 24.7948 16.5312 25.5992 15.5391 25.5992C14.547 25.5992 13.7426 24.7948 13.7426 23.8026V17.6947H7.18575C5.20462 17.6947 3.5927 19.3066 3.5927 21.2877V24.7007C3.5927 26.6818 5.20462 28.2938 7.18575 28.2938H20.3893C21.3814 28.2938 22.1858 29.0978 22.1858 30.0899ZM7.18575 14.102H35.21C37.1911 14.102 38.8027 12.49 38.8027 10.5089V7.18575C38.8027 5.20462 37.1911 3.5927 35.21 3.5927H17.3356V9.61082C17.3356 10.603 16.5312 11.4073 15.5391 11.4073C14.547 11.4073 13.7426 10.603 13.7426 9.61082V3.5927H7.18575C5.20462 3.5927 3.5927 5.20462 3.5927 7.18575V10.5089C3.5927 12.49 5.20462 14.102 7.18575 14.102ZM7.00606 37.1858C7.00606 38.178 7.81044 38.9824 8.80258 38.9824C9.79472 38.9824 10.5988 38.178 10.5988 37.1858C10.5988 36.1937 9.79472 35.3897 8.80258 35.3897C7.81044 35.3897 7.00606 36.1937 7.00606 37.1858ZM7.00606 22.994C7.00606 23.9865 7.81044 24.7906 8.80258 24.7906C9.79472 24.7906 10.5988 23.9865 10.5988 22.994C10.5988 22.0019 9.79472 21.1979 8.80258 21.1979C7.81044 21.1979 7.00606 22.0019 7.00606 22.994ZM45.4595 42.9306L33.8406 31.3639C35.9793 29.1101 38.2162 28.0362 39.8804 27.2374C40.449 26.9647 40.9403 26.7289 41.373 26.4751C42.229 25.9736 42.5161 24.873 42.0142 24.0171C41.6815 23.4496 41.0853 23.1341 40.4722 23.1309C40.4665 23.1306 40.4613 23.1309 40.4557 23.1306C40.4321 23.1306 40.4086 23.1302 40.3848 23.1313C40.3511 23.1316 40.3177 23.1302 40.2837 23.1323C40.0152 23.1488 34.2129 23.5475 29.6119 27.1612L28.4861 26.0354C27.7845 25.3338 26.6471 25.3338 25.9455 26.0354C25.244 26.7369 25.244 27.8744 25.9455 28.5759L27.0714 29.7018C23.4576 34.3028 23.059 40.1051 23.0425 40.3735C23.0418 40.3855 23.0428 40.3967 23.0421 40.4086C23.0407 40.4458 23.0404 40.4834 23.0411 40.5206C23.0414 40.5452 23.0425 40.5694 23.0439 40.5932C23.046 40.6259 23.0488 40.6585 23.0526 40.6908C23.0562 40.7192 23.0597 40.7477 23.0642 40.7757C23.0688 40.8031 23.0744 40.8301 23.08 40.8571C23.0867 40.8884 23.0937 40.9193 23.1021 40.9501C23.1084 40.9744 23.1162 40.9982 23.1235 41.0224C23.1334 41.0537 23.1435 41.0842 23.1548 41.1147C23.1642 41.1393 23.1744 41.1635 23.1846 41.1877C23.1965 41.2155 23.2085 41.2428 23.2218 41.2695C23.2351 41.2972 23.2495 41.3243 23.2646 41.3509C23.2766 41.3727 23.2885 41.3945 23.3015 41.4155C23.3204 41.4467 23.3408 41.4773 23.3618 41.5075C23.3724 41.5226 23.3825 41.538 23.3938 41.5527C23.419 41.5868 23.4457 41.6198 23.4731 41.6517C23.4819 41.6619 23.4903 41.6724 23.4994 41.6822C23.5299 41.7163 23.5619 41.7489 23.5952 41.7809C23.6029 41.7882 23.6107 41.7956 23.6187 41.803C23.6531 41.8345 23.6886 41.8647 23.7258 41.8939C23.7345 41.9009 23.7433 41.9079 23.7524 41.9146C23.7882 41.9419 23.8258 41.9679 23.8644 41.9925C23.876 41.9998 23.8879 42.0072 23.8995 42.0146C23.9367 42.037 23.9746 42.0585 24.0135 42.0785C24.0279 42.0858 24.0423 42.0932 24.0571 42.1002C24.0785 42.1104 24.0985 42.122 24.1206 42.1315C24.1388 42.1395 24.1578 42.1451 24.1764 42.1525C24.1904 42.1578 24.2045 42.163 24.2185 42.1683C24.2638 42.1848 24.3098 42.1999 24.3557 42.2129C24.362 42.2146 24.3687 42.216 24.375 42.2178C24.5277 42.2585 24.6818 42.2806 24.8348 42.2806C25.5047 42.2806 26.1431 41.9026 26.4509 41.2667C26.453 41.2625 26.4551 41.2583 26.4572 41.2537C26.466 41.2355 26.4755 41.2176 26.4836 41.1986C27.5515 38.7377 29.4565 35.8238 31.2393 33.8437L42.9246 45.4767C43.2752 45.8256 43.7336 46 44.1919 46C44.653 46 45.1142 45.8235 45.4651 45.4711C46.1649 44.7678 46.1625 43.6304 45.4595 42.9306Z" fill="url(#paint0_linear)"/>
<defs>
<linearGradient id="paint0_linear" x1="45.9884" y1="23" x2="-2.87427" y2="23" gradientUnits="userSpaceOnUse">
<stop stop-color="#F3E485"/>
<stop offset="1" stop-color="#B18145"/>
</linearGradient>
</defs>
</svg>
