<svg width="39" height="46" viewBox="0 0 39 46" fill="none" xmlns="http://www.w3.org/2000/svg">
<path d="M31.8047 38.8125C31.8047 42.7758 28.5805 46 24.6172 46H7.1875C3.2242 46 0 42.7758 0 38.8125V7.1875C0 3.2242 3.2242 0 7.1875 0H24.6172C28.5805 0 31.8047 3.2242 31.8047 7.1875C31.8047 8.17999 31.0003 8.98438 30.0078 8.98438C29.0153 8.98438 28.2109 8.17999 28.2109 7.1875C28.2109 5.20602 26.5987 3.59375 24.6172 3.59375H7.1875C5.20602 3.59375 3.59375 5.20602 3.59375 7.1875V38.8125C3.59375 40.794 5.20602 42.4062 7.1875 42.4062H24.6172C26.5987 42.4062 28.2109 40.794 28.2109 38.8125C28.2109 37.82 29.0153 37.0156 30.0078 37.0156C31.0003 37.0156 31.8047 37.82 31.8047 38.8125ZM14.1055 37.8351C14.1055 38.8276 14.9099 39.632 15.9023 39.632C16.8948 39.632 17.6992 38.8276 17.6992 37.8351C17.6992 36.8426 16.8948 36.0382 15.9023 36.0382C14.9099 36.0382 14.1055 36.8426 14.1055 37.8351ZM19.4961 8.18666C19.4961 7.19417 18.6917 6.38979 17.6992 6.38979H14.1055C13.113 6.38979 12.3086 7.19417 12.3086 8.18666C12.3086 9.17915 13.113 9.98354 14.1055 9.98354H17.6992C18.6917 9.98354 19.4961 9.17915 19.4961 8.18666ZM38.7757 26.7917L38.0492 28.2366C37.6586 29.0136 36.7679 29.3993 35.934 29.1525L33.8914 28.5482C33.3843 28.9693 32.8239 29.3171 32.2227 29.5832L31.8921 31.6503C31.7524 32.522 31.0003 33.1632 30.1177 33.1632H28.5005C27.6308 33.1632 26.8861 32.5406 26.732 31.6847L26.3498 29.5618C25.8539 29.3378 25.3847 29.0574 24.9513 28.7261L22.8719 29.4501C22.0447 29.7379 21.1305 29.388 20.7076 28.6208L19.9271 27.2048C19.5007 26.432 19.6989 25.464 20.3942 24.9208L22.1423 23.5559C22.1395 23.5205 22.1384 23.4847 22.136 23.4489C22.1339 23.412 22.1314 23.3755 22.1296 23.3387C22.1247 23.2295 22.1216 23.1204 22.1216 23.0109C22.1216 22.888 22.1247 22.7656 22.1307 22.6441L20.451 21.4825C19.714 20.9729 19.4649 19.9983 19.8674 19.1974L20.6339 17.6722C21.0245 16.8955 21.9152 16.5091 22.7494 16.7562L24.8453 17.3763C25.3061 17.0107 25.8087 16.7039 26.3435 16.4618L26.631 14.4062C26.7555 13.5187 27.5143 12.8585 28.4106 12.8585H30.1177C30.9873 12.8585 31.732 13.4811 31.8861 14.3371L32.2683 16.46C32.3037 16.4758 32.3378 16.494 32.3725 16.5105C32.4097 16.5284 32.4469 16.5463 32.4838 16.5646C32.5596 16.6021 32.6347 16.6404 32.7091 16.6801C32.7337 16.6934 32.7579 16.7074 32.7824 16.7211C32.8667 16.7678 32.9505 16.8152 33.033 16.8654C33.0337 16.8657 33.0344 16.8661 33.0355 16.8668C33.2355 16.9885 33.431 17.1187 33.6191 17.2598L35.6574 16.5049C36.491 16.1957 37.4255 16.5435 37.8551 17.3223L38.6791 18.8174C39.1048 19.5891 38.9076 20.556 38.2134 21.0996L36.4755 22.4602C36.4783 22.4974 36.4797 22.5346 36.4818 22.5718C36.4843 22.6083 36.4867 22.6452 36.4885 22.682C36.4934 22.7915 36.4966 22.901 36.4966 23.0109C36.4966 23.1007 36.4948 23.1909 36.4917 23.2808L38.2208 24.527C38.9367 25.0429 39.1719 26.0031 38.7757 26.7917ZM25.7153 23.0109C25.7153 23.08 25.7174 23.1488 25.7216 23.2176C25.7227 23.2362 25.7244 23.2548 25.7258 23.2734C25.7294 23.3239 25.7339 23.3748 25.7399 23.4254C25.742 23.4461 25.7448 23.4664 25.7476 23.4871C25.7543 23.5363 25.7616 23.5854 25.7704 23.6342C25.7739 23.6542 25.7771 23.6742 25.7809 23.6938C25.7911 23.7454 25.8024 23.7967 25.8146 23.8479C25.9659 24.4789 26.2835 25.0453 26.719 25.4988C26.751 25.5318 26.7833 25.5644 26.8163 25.596C26.8384 25.6174 26.8601 25.6388 26.8826 25.6592C26.9303 25.703 26.9787 25.7455 27.0286 25.7862C27.0542 25.8073 27.0805 25.8276 27.1068 25.848C27.1374 25.8718 27.1683 25.895 27.1995 25.9178C27.229 25.9392 27.2581 25.9603 27.2883 25.981C27.3258 26.0066 27.3641 26.0308 27.4027 26.0554C27.4462 26.0828 27.4908 26.1091 27.5357 26.1347C27.5673 26.1526 27.5989 26.1705 27.6308 26.1873C27.6635 26.2045 27.6961 26.2217 27.7294 26.2379C27.768 26.2572 27.8073 26.2747 27.8466 26.2926C27.8888 26.3112 27.9316 26.3295 27.9744 26.3467C28.0186 26.3646 28.0632 26.3818 28.1081 26.3976C28.1365 26.4077 28.1653 26.4172 28.1941 26.4267C28.245 26.4432 28.2959 26.4586 28.3475 26.473C28.6538 26.5583 28.976 26.6046 29.3091 26.6046C29.6137 26.6046 29.9095 26.5664 30.1921 26.4944C30.2675 26.4755 30.3416 26.4534 30.4149 26.4299C30.4409 26.4214 30.4665 26.4127 30.4921 26.4035C30.5448 26.3853 30.5967 26.3656 30.6483 26.3449C30.6918 26.3274 30.735 26.3088 30.7775 26.2895C30.8171 26.2719 30.8564 26.2537 30.8954 26.2344C30.9322 26.2161 30.9691 26.1975 31.0056 26.1779C31.0382 26.1603 31.0701 26.1417 31.1021 26.1231C31.1589 26.0901 31.2151 26.0561 31.2702 26.0199C31.2983 26.0013 31.3267 25.9827 31.3544 25.9631C31.3878 25.9399 31.4214 25.9168 31.4541 25.8922C31.5057 25.8536 31.5562 25.8136 31.6057 25.7722C31.6306 25.7515 31.6552 25.7301 31.6794 25.7083C31.7236 25.6693 31.7671 25.6293 31.8096 25.5879C31.8229 25.5753 31.8366 25.5627 31.85 25.5497C31.9044 25.4949 31.957 25.4377 32.0086 25.3791C32.4108 24.9208 32.6993 24.3603 32.8277 23.7416C32.8354 23.7051 32.8414 23.6682 32.8477 23.6314C32.8516 23.6093 32.8561 23.5871 32.8596 23.5647C32.8684 23.5099 32.8751 23.4548 32.8811 23.3997C32.8818 23.3941 32.8828 23.3889 32.8832 23.3832C32.8961 23.2594 32.9025 23.1351 32.9025 23.0109C32.9025 22.9421 32.9 22.8733 32.8961 22.8042C32.8951 22.7849 32.893 22.7656 32.8916 22.7463C32.8881 22.6964 32.8835 22.6466 32.8779 22.5968C32.8754 22.575 32.8726 22.5532 32.8695 22.5315C32.8632 22.4837 32.8558 22.4364 32.8474 22.389C32.8439 22.3676 32.84 22.3458 32.8358 22.3244C32.8263 22.2749 32.8151 22.2254 32.8035 22.176C32.6522 21.5425 32.3329 20.9736 31.8949 20.5195C31.8573 20.4802 31.8187 20.4423 31.7794 20.4051C31.7636 20.39 31.7478 20.3742 31.7317 20.3594C31.6815 20.3135 31.6303 20.2696 31.578 20.2268C31.5555 20.2082 31.5323 20.1906 31.5095 20.1727C31.4748 20.1461 31.4397 20.1197 31.4039 20.0941C31.3786 20.0755 31.3534 20.0569 31.327 20.0394C31.2747 20.0036 31.2218 19.9692 31.1677 19.9365C31.1393 19.919 31.1098 19.9028 31.0807 19.8864C31.0473 19.8674 31.0136 19.8488 30.9796 19.8306C30.9487 19.8144 30.9175 19.7979 30.8859 19.7825C30.8441 19.7621 30.8013 19.7425 30.7585 19.7235C30.7181 19.706 30.6774 19.6888 30.6364 19.6723C30.5939 19.6554 30.5514 19.6389 30.5083 19.6238C30.4791 19.6133 30.4504 19.6035 30.4209 19.594C30.3721 19.5782 30.3226 19.5631 30.2728 19.5494C29.9657 19.4638 29.6428 19.4171 29.3087 19.4171C28.9813 19.4171 28.664 19.4621 28.3622 19.5445C28.3124 19.5579 28.2629 19.5726 28.2137 19.588C28.1772 19.6 28.1411 19.6123 28.1049 19.6249C28.0741 19.6361 28.0435 19.6477 28.013 19.6596C27.9372 19.6891 27.8628 19.7207 27.7894 19.7551C27.7747 19.7621 27.7596 19.7684 27.7449 19.7758C27.6985 19.7983 27.6529 19.8214 27.608 19.846C27.5971 19.852 27.5866 19.8579 27.5757 19.8639C27.4329 19.9429 27.296 20.0309 27.1658 20.1278C27.1591 20.1327 27.1528 20.1376 27.1465 20.1425C27.0661 20.2033 26.9886 20.2675 26.9135 20.3345C26.905 20.3422 26.8963 20.3496 26.8878 20.3573C26.8506 20.3914 26.8141 20.4261 26.7784 20.4616C26.7654 20.4745 26.7527 20.4879 26.7401 20.5009C26.2867 20.9652 25.9578 21.5509 25.8073 22.2044C25.7932 22.2676 25.7802 22.3307 25.769 22.3939C25.7687 22.3971 25.768 22.3999 25.7676 22.403C25.7567 22.4662 25.7476 22.5294 25.7402 22.5925C25.7395 22.5975 25.7388 22.6024 25.7385 22.6076C25.7315 22.6673 25.7265 22.7273 25.7227 22.787C25.7223 22.795 25.7213 22.8035 25.7209 22.8115C25.7171 22.8782 25.7153 22.9449 25.7153 23.0109Z" fill="url(#paint0_linear)"/>
<defs>
<linearGradient id="paint0_linear" x1="38.9671" y1="23" x2="-2.43544" y2="23" gradientUnits="userSpaceOnUse">
<stop stop-color="#F3E485"/>
<stop offset="1" stop-color="#B18145"/>
</linearGradient>
</defs>
</svg>
