<svg width="48" height="48" viewBox="0 0 48 48" fill="none" xmlns="http://www.w3.org/2000/svg">
<path d="M43.1057 9.31411L24.7237 1.15424C24.2584 0.947691 23.7271 0.94859 23.2626 1.15694L5.0598 9.3168C4.41499 9.60592 4 10.2467 4 10.9532V25.1208C4 30.4752 6.11591 35.9485 9.80525 40.1375C11.661 42.2445 13.8002 43.9118 16.1638 45.0931C18.6955 46.3584 21.3608 47 24.0858 47C27.9014 47 31.615 45.765 34.8253 43.4286C35.6262 42.8458 35.8029 41.7241 35.22 40.9232C34.6372 40.1225 33.5155 39.9457 32.7147 40.5286C30.1217 42.4157 27.1379 43.4133 24.0859 43.4133C15.4509 43.4133 7.58692 34.6945 7.58692 25.1209V12.1146L23.9998 4.75715L40.5849 12.1193V25.1208C40.5849 28.4232 39.6362 31.7653 37.8413 34.7855C37.3353 35.6369 37.6153 36.7374 38.4668 37.2434C39.3184 37.7495 40.4187 37.4694 40.9247 36.6179C43.0489 33.0435 44.1716 29.0679 44.1716 25.1209V10.9532C44.1715 10.2443 43.7538 9.60179 43.1057 9.31411Z" fill="url(#paint0_linear)"/>
<path d="M32.0431 16.1813L23.2035 28.5287C22.9621 28.8086 22.6597 28.8691 22.4975 28.8798C22.3309 28.8909 22.0114 28.8697 21.7295 28.6056L16.0166 23.0305C15.3077 22.3387 14.1723 22.3525 13.4806 23.0615C12.7888 23.7704 12.8027 24.9057 13.5116 25.5975L19.2343 31.1822C19.2396 31.1874 19.245 31.1925 19.2504 31.1976C20.1084 32.0144 21.2536 32.4687 22.4319 32.4687C22.533 32.4687 22.6347 32.4654 22.7362 32.4586C24.0197 32.3731 25.2179 31.7488 26.0236 30.7461C26.0445 30.7202 26.0646 30.6937 26.0839 30.6667L34.9595 18.2691C35.536 17.4638 35.3505 16.3435 34.5452 15.767C33.7399 15.1904 32.6196 15.3758 32.0431 16.1813Z" fill="url(#paint1_linear)"/>
<defs>
<linearGradient id="paint0_linear" x1="44.1716" y1="24" x2="1.48928" y2="24" gradientUnits="userSpaceOnUse">
<stop stop-color="#F3E485"/>
<stop offset="1" stop-color="#B18145"/>
</linearGradient>
<linearGradient id="paint1_linear" x1="35.2947" y1="23.9501" x2="11.5755" y2="23.9501" gradientUnits="userSpaceOnUse">
<stop stop-color="#F3E485"/>
<stop offset="1" stop-color="#B18145"/>
</linearGradient>
</defs>
</svg>
