<svg width="48" height="48" viewBox="0 0 48 48" fill="none" xmlns="http://www.w3.org/2000/svg">
<path d="M47 23.9102L46.9996 24C46.9828 28.3725 45.7348 32.6194 43.388 36.2886C43.0451 36.8245 42.465 37.1175 41.8726 37.1175C41.5413 37.1175 41.2058 37.0256 40.9061 36.834C40.0701 36.2991 39.8258 35.188 40.3607 34.352C42.345 31.25 43.3978 27.6555 43.4062 23.9551C43.382 13.2749 34.7258 4.59375 24.0898 4.59375C17.294 4.59375 10.9888 8.19873 7.49718 13.9312C6.54567 15.4933 7.03113 14.6381 5.81587 16.4835C4.59375 18.0139 2.21509 17.3837 2.66518 15.0882C3.70041 13.1528 3.49108 13.5499 4.59375 11.7907C6.37167 8.95433 8.75253 6.53101 11.5875 4.69167C15.3104 2.27641 19.6334 1 24.0898 1C30.2297 1 35.991 3.39384 40.3122 7.74039C44.6037 12.0571 46.9768 17.7966 47 23.9102ZM35.1894 39.8307C31.9255 42.1109 28.0875 43.3164 24.0898 43.3164C24.0747 43.3164 24.06 43.3182 24.0449 43.3185C24.0298 43.3182 24.0151 43.3164 24 43.3164C23.7273 43.3164 23.4501 43.3104 23.176 43.2992C22.1873 43.2578 21.3475 44.0285 21.3061 45.0199C21.265 46.0114 22.0354 46.8487 23.0272 46.8898C23.3504 46.9031 23.6778 46.9102 24 46.9102C24.0151 46.9102 24.0298 46.9084 24.0449 46.908C24.06 46.9084 24.0747 46.9102 24.0898 46.9102C28.8273 46.9102 33.3771 45.4811 37.2477 42.777C38.0612 42.2084 38.2602 41.0882 37.6917 40.2747C37.1235 39.4612 36.0033 39.2626 35.1894 39.8307ZM9.75204 37.0859C9.07821 36.3577 7.94113 36.3132 7.2129 36.9873C6.48433 37.6612 6.44011 38.7979 7.11429 39.5265C7.51929 39.9645 7.9471 40.3919 8.38508 40.7976C8.73077 41.1173 9.16841 41.2753 9.60499 41.2753C10.0883 41.2753 10.5701 41.0815 10.9246 40.6987C11.5984 39.9704 11.5542 38.8333 10.826 38.1595C10.4554 37.817 10.0942 37.4559 9.75204 37.0859ZM5.80102 30.6646C5.45534 29.7342 4.42143 29.2597 3.49106 29.6054C2.56068 29.9507 2.08655 30.985 2.43188 31.9154C2.63965 32.4751 2.87233 33.0335 3.12361 33.5754C3.42789 34.2313 4.0768 34.617 4.75519 34.617C5.00822 34.617 5.26512 34.563 5.50973 34.4496C6.41028 34.0323 6.80159 32.964 6.38396 32.0635C6.17233 31.6069 5.97615 31.1363 5.80102 30.6646ZM17.2487 42.1102C16.7764 41.9351 16.3054 41.7385 15.8488 41.5269C14.9482 41.1093 13.8799 41.5006 13.4627 42.4011C13.045 43.3013 13.4363 44.3696 14.3365 44.7872C14.8788 45.0385 15.4378 45.2716 15.9986 45.4793C16.2047 45.5558 16.4159 45.5923 16.6233 45.5923C17.3533 45.5923 18.0394 45.1442 18.3083 44.4198C18.6532 43.4894 18.1791 42.4555 17.2487 42.1102ZM2.89023 26.6037C3.88202 26.5627 4.65236 25.7253 4.61095 24.7338C4.59972 24.4611 4.59375 24.1839 4.59375 23.9102C4.59375 22.9177 3.78937 22.1133 2.79688 22.1133C1.80438 22.1133 1 22.9177 1 23.9102C1 24.2337 1.00702 24.5612 1.02036 24.8833C1.06036 25.8495 1.85632 26.6055 2.81407 26.6055C2.83934 26.6055 2.86496 26.6048 2.89023 26.6037ZM17.1298 24.9181C17.6955 24.4576 18.3062 24.0593 18.948 23.7238C17.8994 22.5228 17.2617 20.9541 17.2617 19.2383C17.2617 15.4733 20.3248 12.4102 24.0898 12.4102C27.8548 12.4102 30.918 15.4733 30.918 19.2383C30.918 20.9541 30.2803 22.5228 29.2313 23.7238C29.8735 24.0593 30.4838 24.4576 31.0499 24.9181C32.9644 26.476 34.2959 28.6515 34.7991 31.0433C35.0062 32.0263 34.7616 33.0377 34.1285 33.8179C33.4929 34.6016 32.5478 35.0508 31.5356 35.0508H16.644C15.6319 35.0508 14.6868 34.6016 14.0512 33.8179C13.4181 33.0377 13.1735 32.0263 13.3802 31.0433C13.8835 28.6515 15.215 26.476 17.1298 24.9181ZM20.8555 19.2383C20.8555 21.0218 22.3063 22.4727 24.0898 22.4727C25.8734 22.4727 27.3242 21.0218 27.3242 19.2383C27.3242 17.4547 25.8734 16.0039 24.0898 16.0039C22.3063 16.0039 20.8555 17.4547 20.8555 19.2383ZM16.9739 31.457H31.2057C30.3863 28.3139 27.4723 26.0664 24.1509 26.0664H24.0288C20.7074 26.0664 17.7934 28.3139 16.9739 31.457Z" fill="url(#paint0_linear)"/>
<defs>
<linearGradient id="paint0_linear" x1="47" y1="23.9551" x2="-1.875" y2="23.9551" gradientUnits="userSpaceOnUse">
<stop stop-color="#F3E485"/>
<stop offset="1" stop-color="#B18145"/>
</linearGradient>
</defs>
</svg>
