<svg width="150" height="49" viewBox="0 0 150 49" fill="none" xmlns="http://www.w3.org/2000/svg">
<g clip-path="url(#clip0)">
<path d="M149.756 42.3691C149.756 46.0146 146.799 49 143.125 49H6.63093C2.95665 49 0 46.0146 0 42.3691V6.63093C0 2.95665 2.95665 0 6.63093 0H143.153C146.799 0 149.784 2.95665 149.784 6.63093V42.3691H149.756Z" fill="black"/>
<path d="M149.284 41.8691H149.256V42.3691C149.256 45.7399 146.522 48.5 143.125 48.5H6.63093C3.2342 48.5 0.5 45.7399 0.5 42.3691V6.63093C0.5 3.23279 3.23279 0.5 6.63093 0.5H143.153C146.524 0.5 149.284 3.2342 149.284 6.63093V41.8691Z" stroke="white" stroke-opacity="0.25"/>
<path d="M44.9339 30.4669C44.2693 31.9147 43.9607 32.5793 43.13 33.8609C41.9433 35.6648 40.2819 37.8958 38.2407 37.8958C36.4131 37.9196 35.9384 36.7091 33.47 36.7091C31.0016 36.7328 30.4795 37.8958 28.6519 37.8958C26.587 37.8721 24.9968 35.8784 23.8338 34.0746C20.5347 29.0666 20.2024 23.1804 22.2198 20.0474C23.6676 17.8163 25.9462 16.5347 28.0823 16.5347C30.2659 16.5347 31.6425 17.7214 33.4463 17.7214C35.2027 17.7214 36.2707 16.5347 38.7866 16.5347C40.6854 16.5347 42.7028 17.579 44.1506 19.3591C39.4274 21.9462 40.1869 28.6631 44.9339 30.4669Z" fill="white"/>
<path d="M36.8638 14.5172C37.7895 13.3305 38.4778 11.6928 38.2167 9.98389C36.7214 10.0788 34.965 11.0282 33.9444 12.2861C33.0188 13.4017 32.2593 15.0868 32.5441 16.7008C34.1818 16.7483 35.8669 15.7751 36.8638 14.5172Z" fill="white"/>
<path d="M54.9742 19.9761L50.251 33.8608H52.4108L53.8112 29.5886H58.3682L59.816 33.8608H62.0471L57.3002 19.9761H54.9742ZM56.0897 22.2546C56.2558 22.8717 56.422 23.5125 56.6356 24.2246L57.9173 27.9034H54.3096L55.5675 24.2008C55.7574 23.5837 55.9236 22.9429 56.0897 22.2546Z" fill="white"/>
<path d="M68.1707 23.584C66.7466 23.584 65.5836 24.1299 64.8241 25.1979L64.7291 23.8213H62.8066V23.9875C62.8541 24.8419 62.8778 25.7913 62.8778 27.1442V37.8485H64.9902V32.8642C65.6311 33.6475 66.6754 34.0984 67.8621 34.0984C69.0963 34.0984 70.2118 33.6237 71.0426 32.7455C71.9682 31.7724 72.4429 30.3721 72.4429 28.7107C72.4429 27.2391 72.0157 25.9574 71.2324 25.0318C70.4729 24.0824 69.3811 23.584 68.1707 23.584ZM67.6485 25.3166C69.5235 25.3166 70.3543 27.0492 70.3543 28.7819C70.3543 30.9892 69.2862 32.3658 67.5536 32.3658C66.3668 32.3658 65.37 31.5588 65.0852 30.4196C65.0377 30.2297 65.014 30.0161 65.014 29.7312V28.0461C65.014 27.9037 65.0377 27.7138 65.0852 27.5239C65.0852 27.4765 65.1089 27.4053 65.1089 27.3578C65.4174 26.1473 66.4618 25.3166 67.6485 25.3166Z" fill="white"/>
<path d="M78.9936 23.584C77.5695 23.584 76.4065 24.1299 75.647 25.1979L75.5521 23.8213H73.6533V23.9875C73.7008 24.8419 73.7245 25.7913 73.7245 27.1442V37.8485H75.8369V32.8642C76.4777 33.6475 77.5221 34.0984 78.7088 34.0984C79.943 34.0984 81.0585 33.6237 81.8892 32.7455C82.8149 31.7724 83.2896 30.3721 83.2896 28.7107C83.2896 27.2391 82.8624 25.9574 82.0791 25.0318C81.2959 24.0824 80.2041 23.584 78.9936 23.584ZM78.4714 25.3166C80.3465 25.3166 81.1772 27.0492 81.1772 28.7819C81.1772 30.9892 80.1091 32.3658 78.3765 32.3658C77.2135 32.3658 76.1929 31.5588 75.9081 30.4196C75.8606 30.2297 75.8369 30.0161 75.8369 29.7312V28.0461C75.8369 27.9037 75.8606 27.7138 75.9081 27.5239C75.9081 27.4765 75.9318 27.4053 75.9318 27.3578C76.2404 26.1473 77.2847 25.3166 78.4714 25.3166Z" fill="white"/>
<path d="M92.5464 25.8623C90.5764 25.1028 89.9593 24.5094 89.9593 23.3939C89.9593 22.4682 90.6951 21.5189 92.3565 21.5189C93.7094 21.5189 94.5876 21.9936 94.8249 22.136L95.0148 22.2546L95.6082 20.4983L95.4895 20.4271C95.1335 20.2135 94.1366 19.7388 92.4277 19.7388C89.7457 19.7388 87.8707 21.329 87.8707 23.5838C87.8707 25.4113 89.0337 26.693 91.5495 27.5949C93.3296 28.2595 93.9942 28.9478 93.9942 30.1108C93.9942 31.4399 92.9736 32.2469 91.3122 32.2469C90.2441 32.2469 89.1286 31.9384 88.2742 31.3925L88.0843 31.2738L87.5146 33.0776L87.6096 33.1488C88.3928 33.671 89.8881 34.0507 91.1698 34.0507C94.7775 34.0507 96.0591 31.8434 96.0591 29.9684C96.0829 28.0459 95.0623 26.8592 92.5464 25.8623Z" fill="white"/>
<path d="M99.8564 21.4004L97.7915 22.0412V23.7976H96.2725V25.4827H97.7915V30.6332C97.7915 31.8674 98.0288 32.7455 98.5273 33.2914C99.0019 33.8136 99.714 34.0984 100.568 34.0984C101.352 34.0984 101.921 33.9323 102.182 33.8373L102.301 33.7899L102.206 32.1047L102.016 32.1759C101.755 32.2471 101.47 32.2946 101.043 32.2946C100.236 32.2946 99.8801 31.7724 99.8801 30.5619V25.4827H102.42V23.7976H99.8801V21.4004H99.8564Z" fill="white"/>
<path d="M107.618 23.584C104.675 23.584 102.634 25.7676 102.634 28.9243C102.634 31.9623 104.627 34.0984 107.476 34.0984H107.499C109.897 34.0984 112.484 32.4133 112.484 28.7344C112.484 27.2391 112.033 25.9574 111.155 25.0081C110.229 24.0824 109.018 23.584 107.618 23.584ZM107.547 25.2217C109.446 25.2217 110.3 27.073 110.3 28.7819C110.3 30.8942 109.137 32.4133 107.499 32.4133H107.476C105.885 32.4133 104.722 30.918 104.722 28.8293C104.746 27.0492 105.601 25.2217 107.547 25.2217Z" fill="white"/>
<path d="M118.892 23.6789L118.773 23.6552C118.583 23.6077 118.441 23.584 118.251 23.584C117.159 23.584 116.162 24.2248 115.616 25.2691L115.545 23.7976H113.67L113.694 23.9637C113.741 24.7944 113.765 25.7201 113.765 26.978L113.741 33.8373H115.854V28.4733C115.854 28.1885 115.877 27.9037 115.901 27.6663C116.138 26.3847 117.016 25.554 118.108 25.554C118.322 25.554 118.488 25.5777 118.678 25.5777L118.892 25.6014V23.6789Z" fill="white"/>
<path d="M123.615 23.5601C120.814 23.5601 118.868 25.7911 118.868 28.9953C118.868 32.0808 120.814 34.0745 123.829 34.0745C125.419 34.0745 126.511 33.7185 127.152 33.4337L127.27 33.3862L126.867 31.8197L126.701 31.8909C126.131 32.1283 125.371 32.3656 124.066 32.3656C123.164 32.3656 121.052 32.0571 120.909 29.3276L127.697 29.3513L127.721 29.2089C127.769 28.9953 127.792 28.7105 127.792 28.3307C127.792 26.1234 126.701 23.5601 123.615 23.5601ZM123.473 25.1503C124.114 25.1503 124.636 25.3402 125.015 25.7436C125.609 26.3607 125.727 27.2627 125.727 27.6899H120.933C121.147 26.4794 121.906 25.1503 123.473 25.1503Z" fill="white"/>
<path d="M50.251 10.4823C50.8443 10.411 51.5089 10.3398 52.2684 10.3398C53.6213 10.3398 54.5944 10.6247 55.2352 11.1468C55.8998 11.6927 56.2796 12.4522 56.2796 13.5203C56.2796 14.5883 55.8998 15.4665 55.2352 16.0836C54.5469 16.7007 53.4077 17.033 52.0073 17.033C51.319 17.033 50.7731 17.0093 50.2747 16.9618V10.4823H50.251ZM51.2241 16.321C51.4614 16.3684 51.8175 16.3684 52.1735 16.3684C54.1909 16.3684 55.2827 15.3478 55.2827 13.5915C55.2827 12.025 54.3096 11.0519 52.3159 11.0519C51.8175 11.0519 51.4614 11.0994 51.2004 11.1468V16.321H51.2241Z" fill="white"/>
<path d="M59.6497 17.0808C58.2493 17.0808 57.1338 16.1552 57.1338 14.6599C57.1338 13.0697 58.2968 12.144 59.7446 12.144C61.2399 12.144 62.2605 13.1172 62.2605 14.565C62.2605 16.3213 60.9076 17.0808 59.6497 17.0808ZM59.6734 16.44C60.5753 16.44 61.2636 15.6805 61.2636 14.5887C61.2636 13.7817 60.8127 12.7849 59.6971 12.7849C58.5816 12.7849 58.0832 13.7105 58.0832 14.6124C58.1069 15.6568 58.7477 16.44 59.6734 16.44Z" fill="white"/>
<path d="M63.7794 12.2625L64.4914 14.6597C64.6338 15.1819 64.7762 15.6803 64.8712 16.1787H64.8949C65.0136 15.704 65.1797 15.2056 65.3696 14.6834L66.224 12.2862H67.031L67.838 14.636C68.0279 15.1819 68.194 15.704 68.3127 16.1787H68.3364C68.4314 15.704 68.5738 15.2056 68.7399 14.636L69.4757 12.2625H70.4251L68.7399 16.9857H67.8617L67.0548 14.7309C66.8649 14.185 66.7225 13.7341 66.5801 13.1644H66.5563C66.4377 13.7341 66.2715 14.2325 66.0816 14.7309L65.2272 16.962H64.349L62.7588 12.2388H63.7794V12.2625Z" fill="white"/>
<path d="M71.3756 13.5205C71.3756 13.022 71.3756 12.6423 71.3281 12.2388H72.1826L72.23 12.9983H72.2538C72.5149 12.5711 73.132 12.1201 73.9864 12.1201C74.7222 12.1201 75.8377 12.4999 75.8377 14.1376V16.962H74.8883V14.2562C74.8883 13.4967 74.5798 12.8559 73.6779 12.8559C73.0608 12.8559 72.5623 13.2594 72.3962 13.7341C72.3487 13.8527 72.325 13.9952 72.325 14.1376V16.9857H71.3756V13.5205Z" fill="white"/>
<path d="M77.3799 10.0552H78.3293V16.9857H77.3799V10.0552Z" fill="white"/>
<path d="M82.0549 17.0808C80.6546 17.0808 79.5391 16.1552 79.5391 14.6599C79.5391 13.0697 80.7021 12.144 82.1499 12.144C83.6452 12.144 84.6657 13.1172 84.6657 14.565C84.6657 16.3213 83.3129 17.0808 82.0549 17.0808ZM82.0787 16.44C82.9806 16.44 83.6689 15.6805 83.6689 14.5887C83.6689 13.7817 83.2179 12.7849 82.1024 12.7849C80.9869 12.7849 80.4884 13.7105 80.4884 14.6124C80.5122 15.6568 81.153 16.44 82.0787 16.44Z" fill="white"/>
<path d="M89.5556 15.8465C89.5556 16.25 89.5793 16.6535 89.6268 16.9858H88.7724L88.6774 16.3924H88.6537C88.3689 16.7722 87.7992 17.1045 87.0397 17.1045C85.9717 17.1045 85.4258 16.4399 85.4258 15.7516C85.4258 14.6123 86.5413 13.9952 88.5825 13.9952V13.9003C88.5825 13.5205 88.4638 12.8085 87.3958 12.8085C86.8973 12.8085 86.3989 12.9272 86.0191 13.1645L85.8055 12.5949C86.2328 12.3575 86.8736 12.1914 87.5382 12.1914C89.1521 12.1914 89.5319 13.1645 89.5319 14.1139V15.8465H89.5556ZM88.63 14.5649C87.5856 14.5411 86.3989 14.7073 86.3989 15.6329C86.3989 16.2026 86.8024 16.4636 87.2771 16.4636C87.9654 16.4636 88.4163 16.0839 88.5588 15.6804C88.5825 15.5855 88.6062 15.4905 88.6062 15.3956V14.5649H88.63Z" fill="white"/>
<path d="M95.6084 10.0552V15.7515C95.6084 16.1787 95.6084 16.6534 95.6558 16.962H94.8014L94.7539 16.1312H94.7302C94.4454 16.6534 93.8045 17.0569 92.9501 17.0569C91.6922 17.0569 90.6953 16.0838 90.6953 14.6597C90.6953 13.0695 91.7871 12.1201 93.045 12.1201C93.852 12.1201 94.3979 12.4524 94.6353 12.8321H94.659V10.0552H95.6084ZM94.659 14.185C94.659 14.0663 94.659 13.9239 94.6115 13.8052C94.4691 13.2594 93.947 12.8321 93.2349 12.8321C92.2381 12.8321 91.6684 13.6154 91.6684 14.636C91.6684 15.6091 92.1906 16.3923 93.2112 16.3923C93.852 16.3923 94.4454 16.0126 94.6115 15.3717C94.6353 15.2531 94.659 15.1344 94.659 14.992V14.185Z" fill="white"/>
<path d="M101.636 17.0808C100.236 17.0808 99.1201 16.1552 99.1201 14.6599C99.1201 13.0697 100.283 12.144 101.731 12.144C103.226 12.144 104.247 13.1172 104.247 14.565C104.247 16.3213 102.894 17.0808 101.636 17.0808ZM101.66 16.44C102.562 16.44 103.25 15.6805 103.25 14.5887C103.25 13.7817 102.799 12.7849 101.683 12.7849C100.568 12.7849 100.07 13.7105 100.07 14.6124C100.07 15.6568 100.734 16.44 101.66 16.44Z" fill="white"/>
<path d="M105.434 13.5205C105.434 13.022 105.434 12.6423 105.387 12.2388H106.241L106.289 12.9983H106.312C106.573 12.5711 107.191 12.1201 108.045 12.1201C108.781 12.1201 109.896 12.4999 109.896 14.1376V16.962H108.947V14.2562C108.947 13.4967 108.638 12.8559 107.736 12.8559C107.119 12.8559 106.621 13.2594 106.455 13.7341C106.407 13.8527 106.384 13.9952 106.384 14.1376V16.9857H105.434V13.5205Z" fill="white"/>
<path d="M114.904 11.123V12.2623H116.28V12.9269H114.904V15.4665C114.904 16.0599 115.094 16.3921 115.616 16.3921C115.877 16.3921 116.019 16.3684 116.162 16.3447L116.209 17.0092C116.019 17.0567 115.735 17.1279 115.355 17.1279C114.904 17.1279 114.548 16.9855 114.334 16.7719C114.073 16.5108 113.954 16.0836 113.954 15.5377V12.9031H113.147V12.2386H113.954V11.3604L114.904 11.123Z" fill="white"/>
<path d="M117.349 10.0552H118.298V12.9983H118.322C118.464 12.7609 118.702 12.5236 119.01 12.4049C119.295 12.2388 119.627 12.1676 119.983 12.1676C120.695 12.1676 121.811 12.5473 121.811 14.185V16.9857H120.861V14.2562C120.861 13.4967 120.553 12.8559 119.651 12.8559C119.034 12.8559 118.559 13.2356 118.369 13.7103C118.322 13.829 118.298 13.9477 118.298 14.1138V16.9619H117.349V10.0552Z" fill="white"/>
<path d="M123.9 14.7547C123.923 15.9177 124.73 16.3923 125.68 16.3923C126.368 16.3923 126.795 16.2737 127.127 16.155L127.294 16.7484C126.961 16.8908 126.368 17.0569 125.537 17.0569C123.923 17.0569 122.95 16.0838 122.95 14.6835C122.95 13.2594 123.9 12.1201 125.419 12.1201C127.127 12.1201 127.578 13.473 127.578 14.3512C127.578 14.5173 127.578 14.6597 127.555 14.7547H123.9ZM126.677 14.1376C126.677 13.5917 126.415 12.7372 125.371 12.7372C124.398 12.7372 123.995 13.5442 123.9 14.1376H126.677Z" fill="white"/>
</g>
<defs>
<clipPath id="clip0">
<rect width="149.756" height="49" fill="white"/>
</clipPath>
</defs>
</svg>
