<svg width="48" height="48" viewBox="0 0 48 48" fill="none" xmlns="http://www.w3.org/2000/svg">
<path d="M38.0078 32.636C39.0002 32.636 39.8047 31.8314 39.8047 30.8391V8.1875C39.8047 4.22431 36.5804 1 32.6172 1H15.1875C11.2243 1 8 4.22431 8 8.1875V39.8125C8 43.7757 11.2243 47 15.1875 47H32.6172C36.5804 47 39.8047 43.7757 39.8047 39.8125C39.8047 38.8201 39.0002 38.0156 38.0078 38.0156C37.0154 38.0156 36.2109 38.8201 36.2109 39.8125C36.2109 41.7941 34.5988 43.4062 32.6172 43.4062H15.1875C13.2059 43.4062 11.5938 41.7941 11.5938 39.8125V8.1875C11.5938 6.20591 13.2059 4.59375 15.1875 4.59375H32.6172C34.5988 4.59375 36.2109 6.20591 36.2109 8.1875V30.8391C36.2109 31.8314 37.0154 32.636 38.0078 32.636Z" fill="url(#paint0_linear)"/>
<path d="M26.1337 26.41C28.6257 26.41 30.1662 24.2062 30.1662 21.8279C30.1662 19.5428 28.1771 17.2085 25.944 17.0064C24.273 16.992 23.0527 17.0064 20.1643 17.0064C20.1643 18.01 20.1643 22.3602 20.1643 23.2232C19.8358 23.2232 19.7452 23.2232 19.428 23.2232C17.4344 23.2232 17.6157 26.41 19.428 26.41C19.6546 26.41 19.8928 26.41 20.1643 26.41V27.382C20.1643 28.9189 20.1643 29.961 20.1643 31C21.8747 31 23.1889 31 23.7822 31C23.7822 28.5848 23.7822 27.7871 23.7822 26.41C24.8168 26.41 25.2729 26.41 26.1337 26.41ZM25.5462 20.606C25.9701 20.606 26.8586 20.944 26.8586 21.8279C26.8586 22.8469 26.0252 23.1719 25.6508 23.2232H23.7822V20.606H25.5462Z" fill="url(#paint1_linear)"/>
<path d="M23.9023 40.6318C24.8947 40.6318 25.6992 39.8273 25.6992 38.835C25.6992 37.8426 24.8947 37.0381 23.9023 37.0381C22.91 37.0381 22.1055 37.8426 22.1055 38.835C22.1055 39.8273 22.91 40.6318 23.9023 40.6318Z" fill="url(#paint2_linear)"/>
<path d="M27.4961 9.18652C27.4961 8.19411 26.6916 7.38965 25.6992 7.38965H22.1055C21.1131 7.38965 20.3086 8.19411 20.3086 9.18652C20.3086 10.1789 21.1131 10.9834 22.1055 10.9834H25.6992C26.6916 10.9834 27.4961 10.1788 27.4961 9.18652Z" fill="url(#paint3_linear)"/>
<defs>
<linearGradient id="paint0_linear" x1="39.8047" y1="24" x2="6.01221" y2="24" gradientUnits="userSpaceOnUse">
<stop stop-color="#F3E485"/>
<stop offset="1" stop-color="#B18145"/>
</linearGradient>
<linearGradient id="paint1_linear" x1="30.1662" y1="24" x2="17.2396" y2="24" gradientUnits="userSpaceOnUse">
<stop stop-color="#F3E485"/>
<stop offset="1" stop-color="#B18145"/>
</linearGradient>
<linearGradient id="paint2_linear" x1="25.6992" y1="38.835" x2="21.8809" y2="38.835" gradientUnits="userSpaceOnUse">
<stop stop-color="#F3E485"/>
<stop offset="1" stop-color="#B18145"/>
</linearGradient>
<linearGradient id="paint3_linear" x1="27.4961" y1="9.18652" x2="19.8594" y2="9.18652" gradientUnits="userSpaceOnUse">
<stop stop-color="#F3E485"/>
<stop offset="1" stop-color="#B18145"/>
</linearGradient>
</defs>
</svg>
