<svg width="48" height="48" viewBox="0 0 48 48" fill="none" xmlns="http://www.w3.org/2000/svg">
<path d="M37.9285 22.9621C37.9285 24.1982 38.9343 25.204 40.1707 25.204C41.1614 25.204 41.9644 26.007 41.9644 26.9977C41.9644 27.9884 41.1614 28.7914 40.1707 28.7914C37.5821 28.7914 35.3833 27.0949 34.6249 24.7558H28.2499V36.4144C28.2499 37.4034 29.0546 38.2078 30.0436 38.2078H34.6555C35.4406 35.9154 37.6154 34.2621 40.1707 34.2621C43.3851 34.2621 46 36.877 46 40.0914C46 41.0818 45.197 41.8851 44.2063 41.8851C43.2159 41.8851 42.4126 41.0818 42.4126 40.0914C42.4126 38.855 41.4071 37.8491 40.1707 37.8491C38.9343 37.8491 37.9285 38.855 37.9285 40.0914C37.9285 41.3274 38.9343 42.3333 40.1707 42.3333C41.1614 42.3333 41.9644 43.1362 41.9644 44.127C41.9644 45.1177 41.1614 45.9207 40.1707 45.9207C37.5491 45.9207 35.3265 44.1807 34.5958 41.7952H30.0436C27.0763 41.7952 24.6625 39.3814 24.6625 36.4144V24.7558H17.9365V27.622C17.9365 29.9604 16.4372 31.9552 14.349 32.6958V44.1235C14.349 45.1142 13.5461 45.9172 12.5557 45.9172C11.5649 45.9172 10.7619 45.1142 10.7619 44.1235V31.2095C10.7619 30.2187 11.5649 29.4158 12.5557 29.4158C13.5446 29.4158 14.349 28.611 14.349 27.622V17.8466C14.349 16.8576 13.5446 16.0533 12.5557 16.0533H5.3808C4.39182 16.0533 3.58743 16.8576 3.58743 17.8466V27.622C3.58743 28.611 4.39182 29.4158 5.3808 29.4158C6.37154 29.4158 7.17451 30.2187 7.17451 31.2095V44.1235C7.17451 45.1142 6.37154 45.9172 5.3808 45.9172C4.39041 45.9172 3.58743 45.1142 3.58743 44.1235V32.6958C1.49927 31.9556 0 29.9608 0 27.622V17.847C0 14.8797 2.41385 12.4658 5.3808 12.4658H12.5557C15.5226 12.4658 17.9365 14.8797 17.9365 17.847V21.1684H24.6625V9.50975C24.6625 6.5428 27.0763 4.12895 30.0436 4.12895H34.5958C35.3265 1.74318 37.5491 0.00350952 40.1707 0.00350952C43.3847 0.00350952 46 2.61845 46 5.83282C46 6.82356 45.197 7.62654 44.2063 7.62654C43.2155 7.62654 42.4126 6.82356 42.4126 5.83282C42.4126 4.59642 41.4067 3.59094 40.1707 3.59094C38.9343 3.59094 37.9285 4.59642 37.9285 5.83282C37.9285 7.06923 38.9343 8.07506 40.1707 8.07506C41.1611 8.07506 41.9641 8.87804 41.9641 9.86842C41.9641 10.8592 41.1611 11.6621 40.1707 11.6621C37.6154 11.6621 35.4402 10.0088 34.6551 7.71603H30.0436C29.0546 7.71603 28.2499 8.52077 28.2499 9.50975V21.1684H34.6249C35.3833 18.8293 37.5821 17.1328 40.1707 17.1328C43.3851 17.1328 46 19.7477 46 22.9621C46 23.9528 45.197 24.7558 44.2063 24.7558C43.2159 24.7558 42.4126 23.9528 42.4126 22.9621C42.4126 21.7257 41.4071 20.7202 40.1707 20.7202C38.9343 20.7199 37.9285 21.7257 37.9285 22.9621ZM3.58743 5.3808C3.58743 2.41385 6.00128 0 8.96823 0C11.9352 0 14.349 2.41385 14.349 5.3808C14.349 8.3481 11.9352 10.7619 8.96823 10.7619C6.00128 10.7619 3.58743 8.3481 3.58743 5.3808ZM7.17451 5.3808C7.17451 6.36978 7.97925 7.17451 8.96823 7.17451C9.95721 7.17451 10.7619 6.36978 10.7619 5.3808C10.7619 4.39182 9.95721 3.58743 8.96823 3.58743C7.97925 3.58743 7.17451 4.39182 7.17451 5.3808Z" fill="white"/>
</svg>
