<svg width="90" height="90" viewBox="0 0 90 90" fill="none" xmlns="http://www.w3.org/2000/svg">
<rect width="90" height="90" fill="url(#paint0_linear)"/>
<path d="M42.8594 45.5938C42.8594 48.7396 42.2083 51.1458 40.9062 52.8125C39.6042 54.4792 37.6979 55.3125 35.1875 55.3125C32.7083 55.3125 30.8125 54.4948 29.5 52.8594C28.1875 51.224 27.5156 48.8802 27.4844 45.8281V41.6406C27.4844 38.4635 28.1406 36.0521 29.4531 34.4062C30.776 32.7604 32.6771 31.9375 35.1562 31.9375C37.6354 31.9375 39.5312 32.7552 40.8438 34.3906C42.1562 36.0156 42.8281 38.3542 42.8594 41.4062V45.5938ZM38.3438 41C38.3438 39.1146 38.0833 37.7448 37.5625 36.8906C37.0521 36.026 36.25 35.5938 35.1562 35.5938C34.0938 35.5938 33.3073 36.0052 32.7969 36.8281C32.2969 37.6406 32.0312 38.9167 32 40.6562V46.1875C32 48.0417 32.25 49.4219 32.75 50.3281C33.2604 51.224 34.0729 51.6719 35.1875 51.6719C36.2917 51.6719 37.0885 51.2396 37.5781 50.375C38.0677 49.5104 38.3229 48.1875 38.3438 46.4062V41ZM56.8906 55H52.375V37.5938L46.9844 39.2656V35.5938L56.4062 32.2188H56.8906V55ZM64.7188 52.7812C64.7188 52.0625 64.9583 51.4792 65.4375 51.0312C65.9271 50.5833 66.5365 50.3594 67.2656 50.3594C68.0052 50.3594 68.6146 50.5833 69.0938 51.0312C69.5833 51.4792 69.8281 52.0625 69.8281 52.7812C69.8281 53.4896 69.5885 54.0677 69.1094 54.5156C68.6302 54.9531 68.0156 55.1719 67.2656 55.1719C66.526 55.1719 65.9167 54.9531 65.4375 54.5156C64.9583 54.0677 64.7188 53.4896 64.7188 52.7812Z" fill="white"/>
<defs>
<linearGradient id="paint0_linear" x1="90" y1="45" x2="-5.625" y2="45" gradientUnits="userSpaceOnUse">
<stop stop-color="#2B353A"/>
<stop offset="1" stop-color="#121212"/>
</linearGradient>
</defs>
</svg>
