<svg width="32" height="32" viewBox="0 0 32 32" fill="none" xmlns="http://www.w3.org/2000/svg">
<g opacity="0.7" clip-path="url(#clip0)">
<path d="M11.761 6.19752C11.761 7.00392 11.761 10.6033 11.761 10.6033H8.5332V15.9906H11.761V32H18.3916V15.9911H22.841C22.841 15.9911 23.2577 13.4079 23.4597 10.5834C22.8806 10.5834 18.4166 10.5834 18.4166 10.5834C18.4166 10.5834 18.4166 7.4492 18.4166 6.89984C18.4166 6.34929 19.1396 5.60872 19.8541 5.60872C20.5673 5.60872 22.0725 5.60872 23.4667 5.60872C23.4667 4.87522 23.4667 2.34083 23.4667 0.000162144C21.6055 0.000162144 19.4881 0.000162144 18.5548 0.000162144C11.5971 -0.000209851 11.761 5.39252 11.761 6.19752Z" fill="#F3E485"/>
</g>
<defs>
<clipPath id="clip0">
<rect width="31.9999" height="32" fill="white"/>
</clipPath>
</defs>
</svg>
