<svg width="16" height="32" viewBox="0 0 16 32" fill="none" xmlns="http://www.w3.org/2000/svg">
<path d="M3.76099 6.19751C3.76099 7.00392 3.76099 10.6033 3.76099 10.6033H0.533203V15.9906H3.76099V32H10.3916V15.9911H14.841C14.841 15.9911 15.2577 13.4079 15.4597 10.5834C14.8806 10.5834 10.4166 10.5834 10.4166 10.5834C10.4166 10.5834 10.4166 7.4492 10.4166 6.89984C10.4166 6.34929 11.1396 5.60872 11.8541 5.60872C12.5673 5.60872 14.0725 5.60872 15.4667 5.60872C15.4667 4.87522 15.4667 2.34083 15.4667 0.000162144C13.6055 0.000162144 11.4881 0.000162144 10.5548 0.000162144C3.59709 -0.000209851 3.76099 5.39252 3.76099 6.19751Z" fill="#F3E485"/>
</svg>
