<svg width="54" height="54" viewBox="0 0 54 54" fill="none" xmlns="http://www.w3.org/2000/svg">
<path d="M26.973 0.333008C12.253 0.333008 0.333008 12.2797 0.333008 26.9997C0.333008 41.7197 12.253 53.6663 26.973 53.6663C41.7197 53.6663 53.6663 41.7197 53.6663 26.9997C53.6663 12.2797 41.7197 0.333008 26.973 0.333008ZM45.453 16.333H37.5863C36.733 12.9997 35.5063 9.79967 33.9063 6.83967C38.813 8.51967 42.893 11.933 45.453 16.333ZM26.9997 5.77301C29.213 8.97301 30.9463 12.5197 32.093 16.333H21.9063C23.053 12.5197 24.7863 8.97301 26.9997 5.77301ZM6.35968 32.333C5.93301 30.6263 5.66634 28.8397 5.66634 26.9997C5.66634 25.1597 5.93301 23.373 6.35968 21.6663H15.373C15.1597 23.4263 14.9997 25.1863 14.9997 26.9997C14.9997 28.813 15.1597 30.573 15.373 32.333H6.35968ZM8.54634 37.6663H16.413C17.2663 40.9997 18.493 44.1997 20.093 47.1597C15.1863 45.4797 11.1063 42.093 8.54634 37.6663V37.6663ZM16.413 16.333H8.54634C11.1063 11.9063 15.1863 8.51967 20.093 6.83967C18.493 9.79967 17.2663 12.9997 16.413 16.333V16.333ZM26.9997 48.2263C24.7863 45.0263 23.053 41.4797 21.9063 37.6663H32.093C30.9463 41.4797 29.213 45.0263 26.9997 48.2263ZM33.2397 32.333H20.7597C20.5197 30.573 20.333 28.813 20.333 26.9997C20.333 25.1863 20.5197 23.3997 20.7597 21.6663H33.2397C33.4797 23.3997 33.6663 25.1863 33.6663 26.9997C33.6663 28.813 33.4797 30.573 33.2397 32.333ZM33.9063 47.1597C35.5063 44.1997 36.733 40.9997 37.5863 37.6663H45.453C42.893 42.0663 38.813 45.4797 33.9063 47.1597V47.1597ZM38.6263 32.333C38.8397 30.573 38.9997 28.813 38.9997 26.9997C38.9997 25.1863 38.8397 23.4263 38.6263 21.6663H47.6397C48.0663 23.373 48.333 25.1597 48.333 26.9997C48.333 28.8397 48.0663 30.6263 47.6397 32.333H38.6263Z" fill="white"/>
</svg>
