<svg width="150" height="49" viewBox="0 0 150 49" fill="none" xmlns="http://www.w3.org/2000/svg">
<g clip-path="url(#clip0)">
<path d="M149.812 42.3808C149.812 46.0418 146.854 49 143.192 49H6.61925C2.95816 49 0 46.0418 0 42.3808V6.61925C0 2.95816 2.95816 0 6.61925 0H143.192C146.854 0 149.812 2.95816 149.812 6.61925V42.3808Z" fill="black"/>
<path d="M149.312 42.3808C149.312 45.7657 146.577 48.5 143.192 48.5H6.61925C3.2343 48.5 0.5 45.7657 0.5 42.3808V6.61925C0.5 3.2343 3.2343 0.5 6.61925 0.5H143.192C146.577 0.5 149.312 3.2343 149.312 6.61925V42.3808Z" stroke="white" stroke-opacity="0.25"/>
<path d="M17.9775 10.2051V24.4918V38.7533L32.3651 24.4918L17.9775 10.2051Z" fill="url(#paint0_linear)"/>
<path d="M36.2202 20.6369L30.4249 17.2856L17.9775 10.1045V10.2053L32.3651 24.492L36.2202 20.6369Z" fill="url(#paint1_linear)"/>
<path d="M17.9775 38.7532V38.854L30.4249 31.6729L36.2202 28.3217L32.3651 24.4917L17.9775 38.7532Z" fill="url(#paint2_linear)"/>
<path d="M36.2204 20.6367L32.3652 24.4919L36.2204 28.3218L42.8724 24.4919L36.2204 20.6367Z" fill="url(#paint3_linear)"/>
<path d="M108.612 30.0605C108.083 30.0605 107.579 29.9597 107.125 29.7581C106.672 29.5565 106.294 29.2542 105.991 28.8258H105.891C105.941 29.3045 105.991 29.7581 105.991 30.2116V33.6384H104.731V21.6194H105.765L105.941 22.7533H105.991C106.319 22.2998 106.697 21.9722 107.125 21.7706C107.554 21.569 108.057 21.4683 108.612 21.4683C109.72 21.4683 110.552 21.8462 111.157 22.6021C111.761 23.358 112.064 24.4163 112.064 25.777C112.064 27.1376 111.761 28.1959 111.157 28.9518C110.527 29.6825 109.67 30.0605 108.612 30.0605ZM108.41 22.5265C107.554 22.5265 106.949 22.7533 106.571 23.2321C106.193 23.7108 105.991 24.4415 105.991 25.4746V25.7518C105.991 26.9108 106.193 27.7423 106.571 28.2463C106.949 28.7502 107.579 29.0022 108.435 29.0022C109.141 29.0022 109.72 28.6998 110.124 28.1203C110.527 27.5408 110.728 26.7344 110.728 25.7266C110.728 24.6935 110.527 23.8872 110.124 23.3328C109.72 22.8037 109.166 22.5265 108.41 22.5265Z" fill="#F9F9F9"/>
<path d="M114.961 29.9094H113.701V18.1172H114.961V29.9094Z" fill="#F9F9F9"/>
<path d="M122.192 29.9093L121.94 28.725H121.89C121.487 29.2541 121.059 29.6069 120.655 29.7833C120.252 29.9597 119.723 30.0605 119.118 30.0605C118.287 30.0605 117.657 29.8589 117.178 29.4305C116.699 29.0022 116.473 28.3975 116.473 27.6163C116.473 25.9281 117.808 25.0714 120.504 24.9707L121.915 24.9203V24.4163C121.915 23.7612 121.764 23.2824 121.487 22.9801C121.21 22.6777 120.756 22.5265 120.151 22.5265C119.471 22.5265 118.665 22.7281 117.808 23.1565L117.43 22.199C117.833 21.9722 118.287 21.7958 118.766 21.6698C119.244 21.5439 119.748 21.4683 120.227 21.4683C121.21 21.4683 121.94 21.695 122.419 22.1234C122.898 22.5517 123.125 23.2573 123.125 24.2399V29.9093H122.192ZM119.345 29.0274C120.126 29.0274 120.731 28.8006 121.184 28.3723C121.638 27.9439 121.865 27.3392 121.865 26.5581V25.8022L120.605 25.8525C119.597 25.8777 118.892 26.0541 118.438 26.3313C117.984 26.6085 117.783 27.0368 117.783 27.6163C117.783 28.0699 117.909 28.4226 118.186 28.6494C118.463 28.9014 118.841 29.0274 119.345 29.0274Z" fill="#F9F9F9"/>
<path d="M123.856 21.6196H125.192L127.006 26.3567C127.409 27.4401 127.661 28.2213 127.737 28.7H127.787C127.863 28.448 127.989 27.9945 128.19 27.3898C128.392 26.7598 129.097 24.8449 130.257 21.6448H131.617L128.064 31.0685C127.712 32.0008 127.308 32.6559 126.83 33.0591C126.351 33.4622 125.771 33.6386 125.091 33.6386C124.713 33.6386 124.335 33.5882 123.957 33.5126V32.5048C124.234 32.5552 124.537 32.6055 124.89 32.6055C125.746 32.6055 126.376 32.1268 126.729 31.1441L127.182 29.9599L123.856 21.6196Z" fill="#F9F9F9"/>
<path d="M85.303 22.3755C85.7061 22.7031 86.5376 23.4086 86.5376 24.7189C86.5376 26.0039 85.8069 26.6086 85.0762 27.1882C84.8494 27.4149 84.5975 27.6669 84.5975 28.0449C84.5975 28.4228 84.8494 28.6244 85.051 28.8008L85.6809 29.2795C86.4368 29.9346 87.1424 30.5142 87.1424 31.7236C87.1424 33.3614 85.5549 34.9993 82.5817 34.9993C80.062 34.9993 78.8525 33.7898 78.8525 32.5047C78.8525 31.8748 79.1549 30.9929 80.188 30.3882C81.2715 29.7331 82.7329 29.6323 83.514 29.5819C83.262 29.2795 82.9849 28.952 82.9849 28.3976C82.9849 28.0953 83.0604 27.9189 83.1612 27.7173C82.9597 27.7425 82.7833 27.7425 82.6069 27.7425C80.7675 27.7425 79.7344 26.3819 79.7344 25.0212C79.7344 24.2149 80.0872 23.333 80.8431 22.7031C81.8258 21.8968 83.0101 21.7456 83.9423 21.7456H87.5203L86.4116 22.3755H85.303ZM84.0683 30.0858C83.9171 30.0606 83.8416 30.0606 83.6652 30.0606C83.514 30.0606 82.5817 30.0858 81.851 30.3378C81.473 30.4638 80.3644 30.8921 80.3644 32.1268C80.3644 33.3614 81.5738 34.2433 83.4132 34.2433C85.0762 34.2433 85.9581 33.437 85.9581 32.3788C85.9581 31.4969 85.4038 31.0181 84.0683 30.0858ZM84.5723 26.785C84.9754 26.3819 85.0006 25.8275 85.0006 25.5252C85.0006 24.2653 84.2447 22.3251 82.8085 22.3251C82.3549 22.3251 81.8762 22.5519 81.599 22.9047C81.2966 23.2574 81.2211 23.7362 81.2211 24.1897C81.2211 25.3488 81.9014 27.289 83.388 27.289C83.8416 27.289 84.2951 27.0622 84.5723 26.785Z" fill="#F9F9F9"/>
<path d="M74.3679 29.8084C71.6214 29.8084 70.1348 27.6666 70.1348 25.7265C70.1348 23.4587 71.9994 21.5186 74.6198 21.5186C77.1648 21.5186 78.7522 23.5091 78.7522 25.6005C78.7774 27.6414 77.19 29.8084 74.3679 29.8084ZM76.5348 28.3974C76.9632 27.843 77.064 27.1375 77.064 26.4824C77.064 24.9454 76.3332 22.0477 74.1915 22.0477C73.612 22.0477 73.0576 22.2745 72.6293 22.6272C71.949 23.232 71.823 23.9879 71.823 24.7438C71.823 26.4572 72.6797 29.2792 74.771 29.2792C75.4513 29.3044 76.1317 28.9517 76.5348 28.3974Z" fill="#F9F9F9"/>
<path d="M64.9694 29.8084C62.2229 29.8084 60.7363 27.6666 60.7363 25.7265C60.7363 23.4587 62.6009 21.5186 65.2214 21.5186C67.7663 21.5186 69.3537 23.5091 69.3537 25.6005C69.3789 27.6414 67.7915 29.8084 64.9694 29.8084ZM67.1364 28.3974C67.5647 27.843 67.6655 27.1375 67.6655 26.4824C67.6655 24.9454 66.9348 22.0477 64.793 22.0477C64.2135 22.0477 63.6592 22.2745 63.2308 22.6272C62.5505 23.232 62.4245 23.9879 62.4245 24.7438C62.4245 26.4572 63.2812 29.2792 65.3726 29.2792C66.0529 29.3044 66.7332 28.9517 67.1364 28.3974Z" fill="#F9F9F9"/>
<path d="M59.4262 29.5313L56.9317 30.1108C55.9238 30.262 55.0167 30.4132 54.0592 30.4132C49.2466 30.4132 47.4072 26.8856 47.4072 24.1139C47.4072 20.7375 50.0025 17.5879 54.4372 17.5879C55.3695 17.5879 56.2766 17.7391 57.1081 17.9658C58.4183 18.3438 59.0231 18.7722 59.401 19.0493L57.9648 20.4352L57.3601 20.5863L57.7884 19.8808C57.1837 19.3013 56.1254 18.243 54.0592 18.243C51.3128 18.243 49.2214 20.3344 49.2214 23.3832C49.2214 26.6588 51.5899 29.7329 55.3947 29.7329C56.5034 29.7329 57.0829 29.5061 57.612 29.3045V26.4824L54.9915 26.6336L56.3774 25.8777H60.0813L59.6278 26.3061C59.5018 26.4069 59.4766 26.4572 59.4514 26.5832C59.4262 26.7344 59.4262 27.2384 59.4262 27.4147V29.5313Z" fill="#F9F9F9"/>
<path d="M90.8221 29.0274C90.2426 28.977 90.1166 28.8762 90.1166 28.1959V27.9943V18.3438C90.1166 18.3186 90.1166 18.2682 90.1166 18.243C90.1922 17.6383 90.3686 17.5375 90.8977 17.21H88.4284L87.1182 17.8399H88.4536V28.0195V28.599C88.4536 28.9518 88.378 29.0022 87.9749 29.5313H91.0489L91.704 29.1534C91.4017 29.103 91.1245 29.0778 90.8221 29.0274Z" fill="#F9F9F9"/>
<path d="M97.9026 29.2039C97.701 29.3047 97.5246 29.4307 97.323 29.5063C96.7435 29.7583 96.164 29.8339 95.6348 29.8339C95.0805 29.8339 94.2238 29.8087 93.3419 29.1536C92.1073 28.2969 91.5781 26.8102 91.5781 25.5C91.5781 22.8291 93.7703 21.4937 95.5341 21.4937C96.164 21.4937 96.7939 21.6448 97.323 21.9724C98.1797 22.5519 98.4065 23.2826 98.5325 23.6858L94.4758 25.3488L93.1403 25.4496C93.5687 27.6417 95.0553 28.9268 96.7183 28.9268C97.6002 28.9268 98.2301 28.6244 98.8349 28.3221L97.9026 29.2039ZM96.29 24.0386C96.6175 23.9126 96.7939 23.8118 96.7939 23.5598C96.7939 22.8795 96.0128 22.0732 95.0805 22.0732C94.375 22.0732 93.0899 22.6023 93.0899 24.4669C93.0899 24.7693 93.1151 25.0716 93.1403 25.374L96.29 24.0386Z" fill="#F9F9F9"/>
<path d="M99.5899 21.6446V22.7789H99.4387V21.6446H99.0605V21.5186H99.9428V21.6446H99.5899Z" fill="#F9F9F9"/>
<path d="M101.127 22.7789V21.6194L100.774 22.7789H100.673L100.32 21.6194V22.7789H100.194V21.5186H100.421L100.749 22.5269L101.077 21.5186H101.303V22.7789H101.127Z" fill="#F9F9F9"/>
<path d="M51.2352 13.1771H50.2394C50.2394 13.0306 50.1515 12.6499 49.9465 12.0055H48.4821C48.2771 12.6499 48.1892 13.0306 48.1892 13.1771H47.252C47.252 13.0892 47.4863 12.4156 47.9842 11.1562C48.4821 9.89674 48.7164 9.19382 48.7164 9.07666H49.9172C49.9172 9.19382 50.1515 9.86746 50.5909 11.1269C51.0009 12.3863 51.2352 13.0599 51.2352 13.1771ZM49.7708 11.3905C49.4193 10.3068 49.2436 9.72101 49.2436 9.63315H49.185C49.185 9.72101 49.0093 10.3068 48.6285 11.3905H49.7708Z" fill="#F9FAFA"/>
<path d="M55.2774 13.1771H54.4866C54.4866 13.0892 54.1937 12.6499 53.6079 11.8005C52.9929 10.9218 52.6707 10.3361 52.5828 10.0139H52.5242C52.5828 10.4825 52.6121 10.8926 52.6121 11.2733C52.6121 11.8005 52.6121 12.4156 52.6707 13.1771H51.9092C51.9385 12.5327 51.9678 11.8005 51.9678 11.039C51.9678 10.2775 51.9385 9.63314 51.9092 9.07665H52.8464C52.8464 9.19381 53.11 9.63314 53.6372 10.3946C54.1937 11.2147 54.5159 11.7712 54.5745 12.0641H54.633C54.5745 11.5955 54.5452 11.1854 54.5452 10.8047C54.5452 10.2482 54.5159 9.66243 54.4866 9.04736H55.2774C55.2481 9.57456 55.2188 10.2189 55.2188 11.0097C55.2481 11.8298 55.2481 12.5327 55.2774 13.1771Z" fill="#F9FAFA"/>
<path d="M59.8457 10.9804C59.8457 11.5662 59.6407 12.0934 59.2599 12.5327C58.8792 12.9721 58.352 13.2064 57.6491 13.2064C57.3269 13.2064 56.9168 13.2064 56.3604 13.1771C56.3896 12.5327 56.3896 11.8298 56.3896 11.039C56.3896 10.2775 56.3896 9.63315 56.3604 9.07666H56.9168C57.0047 9.07666 57.1511 9.07666 57.3269 9.07666C57.5026 9.07666 57.6198 9.07666 57.6783 9.07666C58.4398 9.07666 58.9963 9.25239 59.3185 9.63315C59.67 10.0139 59.8457 10.4532 59.8457 10.9804ZM58.967 11.1269C58.967 10.7168 58.8499 10.3947 58.6156 10.1018C58.3813 9.83817 58.0298 9.69172 57.5319 9.69172C57.444 9.69172 57.3269 9.69172 57.1511 9.72101C57.1804 10.1311 57.1804 10.5704 57.1804 11.039C57.1804 11.5369 57.1804 12.0348 57.2097 12.5327C57.3562 12.562 57.4733 12.562 57.6198 12.562C58.0591 12.562 58.4106 12.4156 58.6156 12.152C58.8792 11.8591 58.967 11.5369 58.967 11.1269Z" fill="#F9FAFA"/>
<path d="M64.0342 13.1771H63.097C62.8627 12.4449 62.6577 11.9762 62.5405 11.8005C62.4234 11.6248 62.189 11.5369 61.9254 11.5369C61.8083 11.5369 61.6911 11.5369 61.574 11.5369C61.574 12.0641 61.574 12.6206 61.6033 13.1771H60.7246C60.7539 12.5327 60.7539 11.8298 60.7539 11.039C60.7539 10.2775 60.7539 9.63315 60.7246 9.07666H61.2811C61.3397 9.07666 61.4861 9.07666 61.6619 9.07666C61.8669 9.07666 62.0426 9.07666 62.2183 9.07666C63.1849 9.07666 63.6535 9.39884 63.6535 10.0725C63.6535 10.5997 63.3899 10.9511 62.8334 11.1562V11.2147C63.0384 11.2733 63.2434 11.449 63.3899 11.7126C63.5656 11.947 63.7706 12.4449 64.0342 13.1771ZM62.8627 10.2775C62.8627 9.86746 62.5991 9.66243 62.0426 9.66243C61.8376 9.66243 61.6619 9.66243 61.5154 9.72101C61.5447 10.0432 61.5447 10.4825 61.5447 10.9804C61.6618 10.9804 61.7497 10.9804 61.8376 10.9804C62.5405 10.9804 62.8627 10.7461 62.8627 10.2775Z" fill="#F9FAFA"/>
<path d="M68.5448 11.0683C68.5448 11.7126 68.3398 12.2398 67.959 12.6791C67.5783 13.0892 67.0804 13.3235 66.4946 13.3235C65.9381 13.3235 65.4695 13.1185 65.118 12.7377C64.7373 12.357 64.5615 11.8591 64.5615 11.244C64.5615 10.5996 64.7665 10.0725 65.1473 9.63312C65.5281 9.22308 66.026 8.98877 66.6117 8.98877C67.1682 8.98877 67.6368 9.19379 67.9883 9.57454C68.3691 9.9553 68.5448 10.4532 68.5448 11.0683ZM67.6954 11.1561C67.6954 10.7168 67.5783 10.3653 67.3732 10.1017C67.1389 9.83814 66.8753 9.6917 66.5532 9.6917C66.2603 9.6917 65.9967 9.83814 65.7624 10.1017C65.5573 10.3653 65.4402 10.7168 65.4402 11.1561C65.4402 11.5955 65.5573 11.9469 65.7916 12.2105C66.026 12.4741 66.2896 12.6206 66.6117 12.6206C66.9046 12.6206 67.1682 12.4741 67.4025 12.2105C67.5783 11.9176 67.6954 11.5662 67.6954 11.1561Z" fill="#F9FAFA"/>
<path d="M70.3318 13.1771H69.4531C69.4824 12.5327 69.4824 11.8005 69.4824 11.039C69.4824 10.2775 69.4824 9.63315 69.4531 9.07666H70.3318C70.3025 9.60386 70.3025 10.2482 70.3025 11.039C70.3025 11.8298 70.3025 12.5327 70.3318 13.1771Z" fill="#F9FAFA"/>
<path d="M74.9004 10.9804C74.9004 11.5662 74.6954 12.0934 74.3146 12.5327C73.9339 12.9721 73.4067 13.2064 72.7037 13.2064C72.3816 13.2064 71.9715 13.2064 71.415 13.1771C71.4443 12.5327 71.4443 11.8298 71.4443 11.039C71.4443 10.2775 71.4443 9.63315 71.415 9.07666H71.9715C72.0594 9.07666 72.2058 9.07666 72.3816 9.07666C72.5573 9.07666 72.6745 9.07666 72.733 9.07666C73.4945 9.07666 74.051 9.25239 74.3732 9.63315C74.7247 10.0139 74.9004 10.4532 74.9004 10.9804ZM74.0217 11.1269C74.0217 10.7168 73.9046 10.3947 73.6703 10.1018C73.436 9.83817 73.0845 9.69172 72.5866 9.69172C72.4987 9.69172 72.3816 9.69172 72.2058 9.72101C72.2351 10.1311 72.2351 10.5704 72.2351 11.039C72.2351 11.5369 72.2351 12.0348 72.2644 12.5327C72.4109 12.562 72.528 12.562 72.6745 12.562C73.1138 12.562 73.4652 12.4156 73.6703 12.152C73.9339 11.8591 74.0217 11.5369 74.0217 11.1269Z" fill="#F9FAFA"/>
<path d="M80.9344 13.1771H79.9386C79.9386 13.0306 79.8508 12.6499 79.6457 12.0055H78.1813C77.9763 12.6499 77.8884 13.0306 77.8884 13.1771H76.9512C76.9512 13.0892 77.1855 12.4156 77.6834 11.1562C78.1813 9.89674 78.4156 9.19382 78.4156 9.07666H79.6164C79.6164 9.19382 79.8508 9.86746 80.2901 11.1269C80.7294 12.3863 80.9344 13.0599 80.9344 13.1771ZM79.4993 11.3905C79.1478 10.3068 78.9721 9.72101 78.9721 9.63315H78.9135C78.9135 9.72101 78.7378 10.3068 78.357 11.3905H79.4993Z" fill="#F9FAFA"/>
<path d="M84.6242 10.1603C84.6242 10.6583 84.4484 11.039 84.0677 11.2733C83.6869 11.5076 83.2476 11.6248 82.6911 11.6248C82.6032 11.6248 82.5154 11.6248 82.4861 11.6248C82.4861 12.0055 82.4861 12.5327 82.5154 13.1771H81.6367C81.666 12.562 81.666 11.8591 81.666 11.039C81.666 10.2775 81.666 9.63315 81.6367 9.07666H82.1932C82.2811 9.07666 82.4275 9.07666 82.6325 9.07666C82.8669 9.07666 83.0426 9.07666 83.2183 9.07666C83.6284 9.07666 83.9505 9.16453 84.2141 9.34026C84.4777 9.51599 84.6242 9.77959 84.6242 10.1603ZM83.8041 10.3361C83.8041 9.89674 83.5112 9.66243 82.8961 9.66243C82.7497 9.66243 82.6033 9.69172 82.4275 9.72101C82.4568 10.1311 82.4568 10.5704 82.4568 11.0683C82.5154 11.0683 82.574 11.0683 82.6325 11.0683C83.4233 11.0683 83.8041 10.8047 83.8041 10.3361Z" fill="#F9FAFA"/>
<path d="M88.3732 10.1603C88.3732 10.6583 88.1974 11.039 87.8167 11.2733C87.4359 11.5076 86.9966 11.6248 86.4401 11.6248C86.3523 11.6248 86.2644 11.6248 86.2351 11.6248C86.2351 12.0055 86.2351 12.5327 86.2644 13.1771H85.3857C85.415 12.562 85.415 11.8591 85.415 11.039C85.415 10.2775 85.415 9.63315 85.3857 9.07666H85.9422C86.0301 9.07666 86.1765 9.07666 86.3816 9.07666C86.6159 9.07666 86.7916 9.07666 86.9673 9.07666C87.3774 9.07666 87.6995 9.16453 87.9631 9.34026C88.256 9.51599 88.3732 9.77959 88.3732 10.1603ZM87.5824 10.3361C87.5824 9.89674 87.2895 9.66243 86.6744 9.66243C86.528 9.66243 86.3815 9.69172 86.2058 9.72101C86.2351 10.1311 86.2351 10.5704 86.2351 11.0683C86.2937 11.0683 86.3523 11.0683 86.4108 11.0683C87.2016 11.0683 87.5824 10.8047 87.5824 10.3361Z" fill="#F9FAFA"/>
<path d="M94.5536 11.0683C94.5536 11.7126 94.3486 12.2398 93.9678 12.6791C93.587 13.1185 93.0891 13.3235 92.5034 13.3235C91.9469 13.3235 91.4783 13.1185 91.1268 12.7377C90.7461 12.357 90.5703 11.8591 90.5703 11.244C90.5703 10.5996 90.7753 10.0725 91.1561 9.63312C91.5368 9.22308 92.0347 8.98877 92.6205 8.98877C93.177 8.98877 93.6456 9.19379 93.9971 9.57454C94.3778 9.9553 94.5536 10.4532 94.5536 11.0683ZM93.6749 11.1561C93.6749 10.7168 93.5578 10.3653 93.3527 10.1017C93.1184 9.83814 92.8548 9.6917 92.5327 9.6917C92.2398 9.6917 91.9762 9.83814 91.7419 10.1017C91.5368 10.3653 91.4197 10.7168 91.4197 11.1561C91.4197 11.5955 91.5368 11.9469 91.7711 12.2105C92.0055 12.4741 92.2691 12.6206 92.5912 12.6206C92.8841 12.6206 93.1477 12.4741 93.382 12.2105C93.587 11.9176 93.6749 11.5662 93.6749 11.1561Z" fill="#F9FAFA"/>
<path d="M98.8291 13.1771H98.0383C98.0383 13.0892 97.7454 12.6499 97.1597 11.8005C96.5446 10.9218 96.2224 10.3361 96.1346 10.0139H96.076C96.1346 10.4825 96.1639 10.8926 96.1639 11.2733C96.1639 11.8005 96.1639 12.4156 96.2224 13.1771H95.4609C95.4902 12.5327 95.5195 11.8005 95.5195 11.039C95.5195 10.2775 95.4902 9.63314 95.4609 9.07665H96.3982C96.3982 9.19381 96.6618 9.63314 97.189 10.3946C97.7455 11.2147 98.0676 11.7712 98.1262 12.0641H98.1848C98.1262 11.5955 98.0969 11.1854 98.0969 10.8047C98.0969 10.2482 98.0969 9.66243 98.0383 9.04736H98.8291C98.7998 9.57456 98.7706 10.2189 98.7706 11.0097C98.7706 11.8298 98.7998 12.5327 98.8291 13.1771Z" fill="#F9FAFA"/>
</g>
<defs>
<linearGradient id="paint0_linear" x1="25.1667" y1="10.2078" x2="25.1667" y2="38.7568" gradientUnits="userSpaceOnUse">
<stop stop-color="#5D7FAF"/>
<stop offset="0.2863" stop-color="#6C93B2"/>
<stop offset="0.767" stop-color="#8CB9B8"/>
<stop offset="1" stop-color="#9CCCB9"/>
</linearGradient>
<linearGradient id="paint1_linear" x1="17.9687" y1="17.2935" x2="36.2314" y2="17.2935" gradientUnits="userSpaceOnUse">
<stop stop-color="#81C0A9"/>
<stop offset="1" stop-color="#DFE798"/>
</linearGradient>
<linearGradient id="paint2_linear" x1="27.0999" y1="24.4825" x2="27.0999" y2="38.8605" gradientUnits="userSpaceOnUse">
<stop stop-color="#D25951"/>
<stop offset="0.1668" stop-color="#C05E61"/>
<stop offset="0.5748" stop-color="#9A6385"/>
<stop offset="0.8619" stop-color="#84639C"/>
<stop offset="1" stop-color="#7E64A6"/>
</linearGradient>
<linearGradient id="paint3_linear" x1="37.6186" y1="20.6484" x2="37.6186" y2="28.3163" gradientUnits="userSpaceOnUse">
<stop stop-color="#DF847A"/>
<stop offset="0.1194" stop-color="#E08A7A"/>
<stop offset="0.7128" stop-color="#EBB078"/>
<stop offset="1" stop-color="#F1C178"/>
</linearGradient>
<clipPath id="clip0">
<rect width="149.812" height="49" fill="white"/>
</clipPath>
</defs>
</svg>
