<svg width="334" height="334" viewBox="0 0 334 334" fill="none" xmlns="http://www.w3.org/2000/svg">
<path d="M133.666 242L233.666 167L133.666 92V242ZM167 0.333344C74.9997 0.333344 0.333008 75 0.333008 167C0.333008 259 74.9997 333.667 167 333.667C259 333.667 333.666 259 333.666 167C333.666 75 259 0.333344 167 0.333344ZM167 300.333C93.4997 300.333 33.6663 240.5 33.6663 167C33.6663 93.5 93.4997 33.6667 167 33.6667C240.5 33.6667 300.333 93.5 300.333 167C300.333 240.5 240.5 300.333 167 300.333Z" fill="url(#paint0_linear)"/>
<defs>
<linearGradient id="paint0_linear" x1="333.666" y1="167" x2="-20.5003" y2="167" gradientUnits="userSpaceOnUse">
<stop stop-color="#F3E485"/>
<stop offset="1" stop-color="#B18145"/>
</linearGradient>
</defs>
</svg>
