<svg width="40" height="32" viewBox="0 0 40 32" fill="none" xmlns="http://www.w3.org/2000/svg">
<path d="M37.8947 7.60889V3.55556C37.8947 1.6 36 0 33.6842 0H4.21053C3.09383 0 2.02286 0.374602 1.23323 1.0414C0.443608 1.70819 0 2.61256 0 3.55556V28.4444C0 29.3874 0.443608 30.2918 1.23323 30.9586C2.02286 31.6254 3.09383 32 4.21053 32H33.6842C36 32 37.8947 30.4 37.8947 28.4444V24.3911C38.5311 24.0809 39.0603 23.6354 39.4296 23.099C39.7989 22.5625 39.9956 21.9538 40 21.3333V10.6667C39.9956 10.0462 39.7989 9.43746 39.4296 8.90103C39.0603 8.3646 38.5311 7.91913 37.8947 7.60889ZM35.7895 10.6667V21.3333H21.0526V10.6667H35.7895ZM4.21053 28.4444V3.55556H33.6842V7.11111H21.0526C18.7368 7.11111 16.8421 8.71111 16.8421 10.6667V21.3333C16.8421 23.2889 18.7368 24.8889 21.0526 24.8889H33.6842V28.4444H4.21053Z" fill="white"/>
</svg>
