<svg width="90" height="90" viewBox="0 0 90 90" fill="none" xmlns="http://www.w3.org/2000/svg">
<circle cx="45" cy="45" r="44.5" stroke="black" stroke-opacity="0.15"/>
<path fill-rule="evenodd" clip-rule="evenodd" d="M65.7263 44.2031H40.7383V19.3457H52.476C54.7449 19.3457 56.8323 19.8237 58.7684 20.7499C60.6894 21.691 62.3381 22.901 63.7145 24.4247C65.091 25.9484 66.1649 27.6663 66.9515 29.6233C67.738 31.5802 68.1313 33.5371 68.1313 35.509C68.1313 37.5704 67.7532 39.5722 67.012 41.5291C66.649 42.4702 66.2254 43.3665 65.7263 44.2031ZM53.9735 31.5652C53.1869 30.8781 52.4004 30.5196 51.6138 30.5196H45.2004V40.5133H51.9466C52.7331 40.5133 53.4592 40.1398 54.1398 39.4228C54.8205 38.6908 55.1533 37.3912 55.1533 35.509C55.1533 33.5819 54.76 32.2673 53.9735 31.5652ZM36.8965 47.9825V66.0279H32.4343V51.6872H27.3369V47.9825H36.8965ZM36.8965 44.2031V19.3457H32.4343V40.5133H27.3369V44.2031H36.8965ZM40.7383 66.0279V47.9974H62.6406C61.5818 48.9385 60.3868 49.7302 59.0558 50.3577C57.165 51.254 55.0776 51.7021 52.8088 51.7021H45.2156V66.0279H40.7383Z" fill="black"/>
</svg>
