<svg width="48" height="48" viewBox="0 0 48 48" fill="none" xmlns="http://www.w3.org/2000/svg">
<path d="M42.4062 18.6875V17.8789C42.4062 16.8882 41.6001 16.082 40.6094 16.082H33.4219C32.4311 16.082 31.625 16.8882 31.625 17.8789V27.6719C31.625 28.6626 32.4311 29.4688 33.4219 29.4688C34.4144 29.4688 35.2188 30.2731 35.2188 31.2656V42.4062H38.8125V31.2656C38.8125 30.2731 39.6169 29.4688 40.6094 29.4688C41.6001 29.4688 42.4062 28.6626 42.4062 27.6719C42.4062 26.6794 43.2106 25.875 44.2031 25.875C45.1956 25.875 46 26.6794 46 27.6719C46 30.0145 44.4979 32.0128 42.4062 32.7547V42.4062H44.2031C45.1956 42.4062 46 43.2106 46 44.2031C46 45.1956 45.1956 46 44.2031 46H4.49219C2.01517 46 0 43.9848 0 41.5078V31.625C0 29.148 2.01517 27.1328 4.49219 27.1328H6.28906C8.76608 27.1328 10.7812 29.148 10.7812 31.625V37.9141C10.7812 38.9066 9.97687 39.7109 8.98438 39.7109C7.99188 39.7109 7.1875 38.9066 7.1875 37.9141V31.625C7.1875 31.1295 6.78461 30.7266 6.28906 30.7266H4.49219C3.99664 30.7266 3.59375 31.1295 3.59375 31.625V41.5078C3.59375 42.0034 3.99664 42.4062 4.49219 42.4062H14.0156V22.4609C14.0156 19.9839 16.0308 17.9688 18.5078 17.9688H20.3047C22.7817 17.9688 24.7969 19.9839 24.7969 22.4609V37.9141C24.7969 38.9066 23.9925 39.7109 23 39.7109C22.0075 39.7109 21.2031 38.9066 21.2031 37.9141V22.4609C21.2031 21.9654 20.8002 21.5625 20.3047 21.5625H18.5078C18.0123 21.5625 17.6094 21.9654 17.6094 22.4609V42.4062H31.625V32.7547C29.5333 32.0128 28.0312 30.0145 28.0312 27.6719V17.8789C28.0312 14.9063 30.4493 12.4883 33.4219 12.4883H40.6094C43.5819 12.4883 46 14.9063 46 17.8789V18.6875C46 19.68 45.1956 20.4844 44.2031 20.4844C43.2106 20.4844 42.4062 19.68 42.4062 18.6875ZM31.625 5.39062C31.625 2.41806 34.0431 0 37.0156 0C39.9882 0 42.4062 2.41806 42.4062 5.39062C42.4062 8.36319 39.9882 10.7812 37.0156 10.7812C34.0431 10.7812 31.625 8.36319 31.625 5.39062ZM35.2188 5.39062C35.2188 6.38136 36.0249 7.1875 37.0156 7.1875C38.0064 7.1875 38.8125 6.38136 38.8125 5.39062C38.8125 4.39989 38.0064 3.59375 37.0156 3.59375C36.0249 3.59375 35.2188 4.39989 35.2188 5.39062Z" fill="white"/>
</svg>
