<svg width="27" height="28" viewBox="0 0 27 28" fill="none" xmlns="http://www.w3.org/2000/svg">
<path d="M26.2042 16.8309C26.3938 15.9638 26.4947 15.0637 26.4947 14.14C26.4947 7.21404 20.88 1.5992 13.9537 1.5992C13.2225 1.5992 12.5061 1.6624 11.809 1.78267C10.6882 1.07653 9.36219 0.666666 7.93979 0.666666C3.92308 0.666666 0.666992 3.92311 0.666992 7.9392C0.666992 9.28178 1.03224 10.5383 1.66664 11.6179C1.50033 12.4326 1.41295 13.2759 1.41295 14.1399C1.41295 21.0659 7.02761 26.6807 13.9537 26.6807C14.7383 26.6807 15.5057 26.6081 16.2501 26.4703C17.2739 27.0205 18.4446 27.3333 19.6881 27.3333C23.7049 27.3333 26.9609 24.0772 26.9609 20.0608C26.9609 18.9002 26.6877 17.8042 26.2042 16.8309ZM20.3857 20.1332C19.8055 20.9541 18.9483 21.6047 17.8377 22.0664C16.7379 22.5236 15.4195 22.7554 13.9188 22.7554C12.1176 22.7554 10.6074 22.4386 9.42877 21.8133C8.58619 21.3581 7.89135 20.7417 7.36397 19.9811C6.83126 19.2126 6.56104 18.4501 6.56104 17.7149C6.56104 17.2554 6.73704 16.857 7.08424 16.5309C7.42779 16.2077 7.86806 16.044 8.39304 16.044C8.82397 16.044 9.19561 16.1734 9.49784 16.4287C9.78646 16.6733 10.0342 17.0353 10.2332 17.5028C10.4554 18.0117 10.6977 18.4415 10.9537 18.78C11.1996 19.1056 11.5535 19.3793 12.0054 19.5929C12.4601 19.8082 13.0729 19.9172 13.8268 19.9172C14.8635 19.9172 15.7136 19.6959 16.3529 19.2593C16.9774 18.8329 17.281 18.3211 17.281 17.6945C17.281 17.1994 17.1225 16.8103 16.7967 16.505C16.4553 16.1858 16.0052 15.9373 15.4585 15.7669C14.8885 15.5892 14.1147 15.3976 13.1577 15.1972C11.8611 14.9196 10.759 14.5901 9.88121 14.2178C9.87784 14.2164 9.87437 14.215 9.87099 14.2135C8.9717 13.831 8.2469 13.3006 7.71668 12.637C7.1781 11.963 6.90521 11.1175 6.90521 10.1236C6.90521 9.17627 7.1917 8.32231 7.75677 7.58569C8.31757 6.85422 9.13659 6.28578 10.191 5.89573C11.2318 5.51084 12.4698 5.31582 13.8706 5.31582C14.9906 5.31582 15.9753 5.44515 16.7972 5.70071C17.6238 5.95813 18.3207 6.30578 18.8682 6.73351C19.4198 7.16444 19.83 7.62551 20.0877 8.10436C20.348 8.588 20.4799 9.06933 20.4799 9.53493C20.4799 9.98302 20.3068 10.3902 19.9655 10.7452C19.6221 11.1021 19.1888 11.2834 18.6775 11.2834C18.213 11.2834 17.8496 11.17 17.5973 10.9466C17.3625 10.7391 17.1192 10.4156 16.8489 9.95022C16.5361 9.35609 16.1577 8.88773 15.7235 8.55769C15.3022 8.23716 14.5977 8.0744 13.6297 8.0744C12.7308 8.0744 11.9997 8.25484 11.4569 8.61076C10.9337 8.95369 10.6796 9.34693 10.6796 9.8128C10.6796 10.0986 10.7614 10.3373 10.9297 10.5428C11.1079 10.7605 11.3593 10.9517 11.677 11.1107C12.0066 11.2764 12.3463 11.408 12.6865 11.502C13.0351 11.5987 13.6199 11.742 14.4218 11.9272C15.2668 12.1086 16.0537 12.3084 16.7701 12.5223C16.914 12.5652 17.0562 12.6087 17.1942 12.6528C18.0293 12.9201 18.751 13.2498 19.3395 13.6325C19.9402 14.0237 20.4159 14.5261 20.7534 15.1259C21.0918 15.7277 21.2633 16.4709 21.2633 17.3342C21.2631 18.3676 20.9678 19.3091 20.3857 20.1332Z" fill="#F3E485"/>
</svg>
