<svg width="48" height="48" viewBox="0 0 48 48" fill="none" xmlns="http://www.w3.org/2000/svg">
<path d="M25.6583 27.6839C28.004 27.6839 29.4541 25.6094 29.4541 23.3707C29.4541 21.2198 27.5817 19.0224 25.4797 18.8322C23.9068 18.8186 22.7581 18.8322 20.0392 18.8322C20.0392 19.7769 20.0392 23.8717 20.0392 24.6841C19.73 24.6841 19.6447 24.6841 19.3462 24.6841C17.4696 24.6841 17.6402 27.6839 19.3462 27.6839C19.5594 27.6839 19.7836 27.6839 20.0392 27.6839V28.5989C20.0392 30.0455 20.0392 31.0264 20.0392 32.0045C21.6492 32.0045 22.8864 32.0045 23.4448 32.0045C23.4448 29.7311 23.4448 28.9802 23.4448 27.6839C24.4187 27.6839 24.848 27.6839 25.6583 27.6839ZM25.1052 22.2206C25.5043 22.2206 26.3407 22.5387 26.3407 23.3707C26.3407 24.3299 25.5562 24.6359 25.2037 24.6841H23.4448V22.2206H25.1052Z" fill="white"/>
<path d="M44.7769 41.7454L41.9946 36.657V13.6704C41.9946 12.7365 41.2375 11.9793 40.3032 11.9793H36.8362C35.9019 11.9793 35.1448 12.7365 35.1448 13.6704C35.1448 14.6046 35.9019 15.3618 36.8362 15.3618H38.6118V35.2348H8.84502V15.3618H10.1132C11.0475 15.3618 11.8046 14.6046 11.8046 13.6704C11.8046 12.7365 11.0475 11.9793 10.1132 11.9793H7.15361C6.21937 11.9793 5.4622 12.7365 5.4622 13.6704V36.3475L2.51083 41.7454C1.80057 43.0444 1.83261 44.5891 2.59672 45.8778C3.38461 47.2065 4.77341 48 6.31187 48H41.0604C42.5718 48 43.9338 47.2247 44.7038 45.926C45.4723 44.6301 45.4997 43.0672 44.7769 41.7454ZM41.7944 44.2006C41.7201 44.3258 41.4998 44.6215 41.0604 44.6215H29.4742C29.428 43.7289 28.6916 43.015 27.7875 43.015H19.4157C18.5115 43.015 17.7751 43.7289 17.7289 44.6215H6.31187C5.8203 44.6215 5.57089 44.2617 5.50647 44.1524C5.4176 44.0031 5.29603 43.7021 5.47872 43.3681L8.03235 38.6979H39.2553L41.809 43.3681C42.0088 43.7338 41.8856 44.0467 41.7944 44.2006ZM15.538 9.68136C14.8644 9.03453 14.8426 7.96352 15.4894 7.28993C16.1366 6.61634 17.2072 6.59454 17.8808 7.24137L23.2778 12.4236C23.5398 12.673 23.845 12.6932 24.0029 12.6826C24.1556 12.6724 24.441 12.6156 24.6686 12.3516L33.0054 0.706987C33.5491 -0.0524944 34.6056 -0.227582 35.3651 0.31618C36.1246 0.859941 36.2993 1.91641 35.7556 2.67589L27.3851 14.3681C27.3669 14.3935 27.3481 14.4186 27.3283 14.4427C26.5685 15.3885 25.4383 15.9772 24.2279 16.0578C24.1321 16.0641 24.0363 16.0674 23.9408 16.0674C22.8295 16.0674 21.7496 15.6389 20.9402 14.8686L15.538 9.68136Z" fill="white"/>
</svg>
