<svg width="48" height="48" viewBox="0 0 48 48" fill="none" xmlns="http://www.w3.org/2000/svg">
<path d="M24 26.6055C24.9924 26.6055 25.7969 25.801 25.7969 24.8086V2.79688C25.7969 1.80446 24.9924 1 24 1C23.0076 1 22.2031 1.80446 22.2031 2.79688V24.8086C22.2031 25.801 23.0076 26.6055 24 26.6055Z" fill="white"/>
<path d="M20.0893 34.0018C20.0924 34.0049 20.0953 34.008 20.0984 34.011C21.1497 35.0623 22.5304 35.5877 23.9111 35.5877C25.2907 35.5877 26.6702 35.0628 27.7194 34.0135L37.6665 24.1052C38.3697 23.4049 38.3719 22.2672 37.6716 21.5641C36.9712 20.861 35.8335 20.8587 35.1304 21.559L25.1808 31.4699C24.8413 31.8092 24.3901 31.9962 23.9102 31.9962C23.432 31.9962 22.9822 31.8106 22.6432 31.4736L12.8813 21.5706C12.1846 20.8638 11.0468 20.8557 10.3401 21.5524C9.6334 22.249 9.62523 23.3867 10.3219 24.0935L20.0893 34.0018Z" fill="white"/>
<path d="M45.2031 38.0156C44.2107 38.0156 43.4062 38.8201 43.4062 39.8125C43.4062 41.7941 41.7941 43.4062 39.8125 43.4062H8.1875C6.20591 43.4062 4.59375 41.7941 4.59375 39.8125C4.59375 38.8201 3.78929 38.0156 2.79688 38.0156C1.80446 38.0156 1 38.8201 1 39.8125C1 43.7757 4.22431 47 8.1875 47H39.8125C43.7757 47 47 43.7757 47 39.8125C47 38.8201 46.1955 38.0156 45.2031 38.0156Z" fill="white"/>
</svg>
