<svg width="48" height="48" viewBox="0 0 48 48" fill="none" xmlns="http://www.w3.org/2000/svg">
<path d="M46.1658 30.2963C45.3603 29.7197 44.2399 29.9051 43.6634 30.7106L34.8228 43.0594C34.5814 43.3393 34.2788 43.3998 34.1167 43.4105C33.9499 43.4216 33.6305 43.4005 33.3486 43.1364L27.635 37.5607C26.9262 36.8689 25.7905 36.8827 25.0988 37.5917C24.407 38.3006 24.4209 39.4361 25.1297 40.1279L30.8531 45.7132C30.8584 45.7184 30.8638 45.7236 30.8692 45.7287C31.7273 46.5455 32.8726 46.9999 34.051 46.9999C34.1523 46.9999 34.254 46.9966 34.3555 46.9897C35.6392 46.9042 36.8375 46.28 37.6434 45.277C37.6642 45.2511 37.6843 45.2247 37.7037 45.1976L46.5802 32.7987C47.1567 31.9933 46.9713 30.8729 46.1658 30.2963Z" fill="white"/>
<path d="M23.4829 25.3834C23.6405 25.3895 23.7986 25.3926 23.9576 25.3926C24.1169 25.3926 24.2754 25.3895 24.4331 25.3834C29.0437 25.4942 33.4709 27.2128 36.9462 30.251C37.6921 30.903 38.8251 30.8269 39.477 30.0811C40.129 29.3354 40.0529 28.2023 39.3071 27.5503C36.9394 25.4804 34.1983 23.9288 31.2576 22.9606C34.2281 20.7341 36.1537 17.1857 36.1537 13.1962C36.1538 6.47119 30.6827 1 23.9575 1C17.2324 1 11.7613 6.47119 11.7613 13.1962C11.7613 17.1874 13.6882 20.7368 16.6608 22.9632C13.9374 23.8598 11.382 25.2549 9.1454 27.0945C5.04422 30.4679 2.19277 35.1732 1.11636 40.3438C0.778999 41.9639 1.1832 43.628 2.22503 44.9092C3.26182 46.1841 4.79913 46.9153 6.44291 46.9153H22.2538C23.2444 46.9153 24.0474 46.1123 24.0474 45.1217C24.0474 44.1312 23.2442 43.3282 22.2538 43.3282H6.44282C5.67717 43.3282 5.2152 42.9008 5.00802 42.6461C4.65026 42.2062 4.51181 41.6337 4.62816 41.075C6.48953 32.1344 14.3758 25.6035 23.4829 25.3834ZM15.3485 13.1963C15.3485 8.44919 19.2106 4.58718 23.9577 4.58718C28.7048 4.58718 32.5668 8.44919 32.5668 13.1963C32.5668 17.7977 28.9384 21.5673 24.3926 21.7946C24.2478 21.7919 24.1029 21.7906 23.9578 21.7906C23.8132 21.7906 23.6688 21.792 23.5245 21.7947C18.9778 21.5681 15.3485 17.7981 15.3485 13.1963Z" fill="white"/>
</svg>
