<svg width="48" height="48" viewBox="0 0 48 48" fill="none" xmlns="http://www.w3.org/2000/svg">
<path d="M26.1337 19.41C28.6257 19.41 30.1662 17.2062 30.1662 14.8279C30.1662 12.5428 28.1771 10.2085 25.944 10.0064C24.273 9.99196 23.0527 10.0064 20.1643 10.0064C20.1643 11.01 20.1643 15.3602 20.1643 16.2232C19.8358 16.2232 19.7452 16.2232 19.428 16.2232C17.4344 16.2232 17.6157 19.41 19.428 19.41C19.6546 19.41 19.8928 19.41 20.1643 19.41V20.382C20.1643 21.9189 20.1643 22.961 20.1643 24C21.8747 24 23.1889 24 23.7822 24C23.7822 21.5848 23.7822 20.7871 23.7822 19.41C24.8168 19.41 25.2729 19.41 26.1337 19.41ZM25.5462 13.606C25.9701 13.606 26.8586 13.944 26.8586 14.8279C26.8586 15.8469 26.0252 16.1719 25.6508 16.2232H23.7822V13.606H25.5462Z" fill="white"/>
<path d="M46.8056 29.6669C46.1303 35.0308 43.8327 39.9631 40.1607 43.931C40.1578 43.9338 40.1554 43.9366 40.1529 43.939L37.8184 46.4308C37.4646 46.8084 36.9863 46.9993 36.5065 46.9993C36.0664 46.9993 35.625 46.8382 35.2782 46.5136C34.5542 45.8349 34.517 44.6978 35.1957 43.9734L37.5261 41.4859C40.6836 38.0729 42.6591 33.8309 43.2396 29.218C43.3634 28.2332 44.2629 27.5352 45.247 27.6594C46.2314 27.7833 46.9295 28.6821 46.8056 29.6669ZM39.8185 27.7931L39.8276 10.9376C39.8276 10.9197 39.8272 10.9018 39.8265 10.8839C39.8129 10.4095 39.9817 9.96304 40.3017 9.62718C40.625 9.28781 41.0703 9.09339 41.5557 9.079C42.0477 9.06531 42.5047 9.23447 42.8528 9.55664C43.1897 9.86864 43.3848 10.2943 43.4038 10.7569L43.4055 20.4919C43.4059 21.4844 44.2103 22.2888 45.2028 22.2888C46.1953 22.2885 47 21.4837 47 20.4912L46.9979 10.7257C46.9979 10.7081 46.9979 10.6906 46.9972 10.6734C46.9109 7.72608 44.4216 5.40032 41.4504 5.48631C40.0129 5.52842 38.6807 6.11802 37.7001 7.14701C37.4699 7.38881 37.266 7.64852 37.0877 7.92261C36.5557 7.14034 35.9482 6.39668 35.2652 5.7039C29.1425 -0.50549 19.1099 -0.576734 12.9001 5.54597C12.1561 6.27946 11.4911 7.08314 10.9106 7.94086C10.7179 7.65098 10.4951 7.37688 10.2427 7.12209C9.23866 6.10925 7.89802 5.52807 6.46719 5.48631C6.41209 5.48455 6.35699 5.48385 6.30225 5.48385C3.40654 5.48385 1.09623 7.7331 1.0099 10.6734C1.00954 10.6906 1.00919 10.7081 1.00919 10.7257L1.00639 25.8945C0.859338 32.6626 3.25599 39.0678 7.75694 43.9313C7.7594 43.9338 7.76185 43.9366 7.76431 43.939L10.0988 46.4308C10.4526 46.8084 10.9309 46.9993 11.4107 46.9993C11.8511 46.9993 12.2926 46.8386 12.639 46.5136C13.3634 45.8349 13.4006 44.6978 12.7219 43.9734L10.3908 41.4855C6.52545 37.3064 4.46887 31.7908 4.60013 25.9549C4.60048 25.9415 4.60083 25.9278 4.60083 25.9148L4.60329 10.7569C4.64295 9.77037 5.3989 9.04987 6.36191 9.079C6.85921 9.09374 7.34317 9.30255 7.68956 9.6521C8.02542 9.99112 8.203 10.4288 8.18966 10.8839C8.18896 10.9018 8.18861 10.9197 8.18861 10.9376L8.19774 27.8823C8.18826 28.0918 8.19107 28.3017 8.20581 28.5112C8.20686 28.5259 8.20756 28.541 8.20932 28.5558C8.30056 29.7223 8.76838 30.8678 9.6233 31.7915C9.62611 31.7947 9.62892 31.7975 9.63172 31.8007L15.7741 38.3452C16.4535 39.0689 17.591 39.1047 18.3146 38.4256C19.0383 37.7461 19.0741 36.609 18.395 35.8854L12.2575 29.3461C11.9782 29.0422 11.8248 28.667 11.7922 28.2841V27.9809C11.828 27.5485 12.0168 27.1277 12.3597 26.8105C12.7117 26.4844 13.1693 26.3167 13.6498 26.3335C14.1295 26.3521 14.5731 26.5564 14.9044 26.9147L24.0892 36.7522C24.8413 37.5647 25.2319 38.6214 25.1891 39.7272C25.1462 40.8335 24.6753 41.8568 23.8614 42.61L22.486 43.8832C21.7575 44.557 21.7132 45.6941 22.3874 46.4227C22.7415 46.8056 23.2237 46.9993 23.707 46.9993C24.1436 46.9993 24.5812 46.841 24.9272 46.521L26.304 45.2467C27.8215 43.8425 28.701 41.9319 28.7807 39.8662C28.8607 37.8009 28.1311 35.8278 26.7217 34.305L26.5241 34.0931L33.1227 26.9087C33.7958 26.1812 34.9353 26.1374 35.6625 26.8101C35.9882 27.1119 36.1756 27.5071 36.2244 27.9167L36.224 28.3378C36.1819 28.7035 36.0293 29.0597 35.7608 29.35C35.7531 29.358 35.7457 29.3665 35.738 29.3749L31.8273 33.7628C31.1672 34.5037 31.2324 35.6397 31.9733 36.2999C32.3158 36.6052 32.7429 36.7554 33.1683 36.7554C33.6631 36.7554 34.1555 36.5522 34.5107 36.1539L38.4115 31.7775C39.4433 30.6548 39.9069 29.2078 39.8185 27.7931ZM30.4804 24.4724L26.5399 28.7625C24.9083 29.1061 23.2016 29.1134 21.5665 28.7832L17.5373 24.4675C16.5588 23.4105 15.228 22.7977 13.7887 22.7419C13.6315 22.7359 13.475 22.7373 13.3192 22.7447C10.6863 18.0076 11.5248 11.9494 15.4235 8.10546C20.222 3.37428 27.9749 3.42903 32.7054 8.22759C36.5283 12.1049 37.3186 18.0244 34.6869 22.7475C33.155 22.6794 31.603 23.2592 30.4804 24.4724Z" fill="white"/>
</svg>
