<svg width="32" height="23" viewBox="0 0 32 23" fill="none" xmlns="http://www.w3.org/2000/svg">
<path d="M30.7527 2.26655C29.5976 0.893437 27.465 0.333334 23.3921 0.333334H8.60759C4.4415 0.333334 2.27272 0.929567 1.12196 2.39145C0 3.81679 0 5.91692 0 8.82355V14.3636C0 19.9946 1.3312 22.8537 8.60759 22.8537H23.3922C26.9242 22.8537 28.8813 22.3595 30.1475 21.1477C31.446 19.9051 32 17.8761 32 14.3636V8.82355C32 5.75826 31.9132 3.64575 30.7527 2.26655ZM20.5441 12.3584L13.8305 15.8672C13.6804 15.9456 13.5163 15.9845 13.3524 15.9845C13.1668 15.9845 12.9816 15.9346 12.8175 15.8353C12.5087 15.6481 12.3201 15.3134 12.3201 14.9523V7.95728C12.3201 7.59682 12.5082 7.26237 12.8164 7.07511C13.1247 6.88786 13.5082 6.87506 13.8281 7.04126L20.5417 10.5274C20.8833 10.7047 21.0978 11.0574 21.0983 11.4421C21.0987 11.8271 20.8852 12.1803 20.5441 12.3584Z" fill="#F3E485"/>
</svg>
